G04 MADE WITH FRITZING*
G04 WWW.FRITZING.ORG*
G04 DOUBLE SIDED*
G04 HOLES PLATED*
G04 CONTOUR ON CENTER OF CONTOUR VECTOR*
%ASAXBY*%
%FSLAX23Y23*%
%MOIN*%
%OFA0B0*%
%SFA1.0B1.0*%
%ADD10C,0.010197*%
%ADD11R,2.122220X1.535630X2.106220X1.519630*%
%ADD12C,0.008000*%
%ADD13R,0.134945X0.012124*%
%ADD14R,0.001000X0.001000*%
%LNSILK1*%
G90*
G70*
G54D10*
X1978Y1383D03*
G54D12*
X4Y1532D02*
X2118Y1532D01*
X2118Y4D01*
X4Y4D01*
X4Y1532D01*
D02*
G54D13*
X1982Y1344D03*
G54D14*
X1915Y1473D02*
X2049Y1473D01*
X1915Y1472D02*
X2049Y1472D01*
X1915Y1471D02*
X2049Y1471D01*
X1915Y1470D02*
X2049Y1470D01*
X1915Y1469D02*
X2049Y1469D01*
X1915Y1468D02*
X2049Y1468D01*
X1915Y1467D02*
X2049Y1467D01*
X154Y1466D02*
X176Y1466D01*
X539Y1466D02*
X571Y1466D01*
X835Y1466D02*
X858Y1466D01*
X1027Y1466D02*
X1030Y1466D01*
X1054Y1466D02*
X1056Y1466D01*
X1124Y1466D02*
X1142Y1466D01*
X1915Y1466D02*
X2049Y1466D01*
X153Y1465D02*
X178Y1465D01*
X539Y1465D02*
X571Y1465D01*
X834Y1465D02*
X859Y1465D01*
X1026Y1465D02*
X1031Y1465D01*
X1053Y1465D02*
X1057Y1465D01*
X1123Y1465D02*
X1142Y1465D01*
X1915Y1465D02*
X2049Y1465D01*
X152Y1464D02*
X179Y1464D01*
X539Y1464D02*
X571Y1464D01*
X833Y1464D02*
X861Y1464D01*
X1026Y1464D02*
X1031Y1464D01*
X1052Y1464D02*
X1058Y1464D01*
X1123Y1464D02*
X1142Y1464D01*
X1915Y1464D02*
X2049Y1464D01*
X151Y1463D02*
X180Y1463D01*
X539Y1463D02*
X571Y1463D01*
X832Y1463D02*
X861Y1463D01*
X936Y1463D02*
X939Y1463D01*
X1025Y1463D02*
X1031Y1463D01*
X1052Y1463D02*
X1058Y1463D01*
X1123Y1463D02*
X1142Y1463D01*
X1915Y1463D02*
X2049Y1463D01*
X150Y1462D02*
X181Y1462D01*
X539Y1462D02*
X571Y1462D01*
X831Y1462D02*
X862Y1462D01*
X935Y1462D02*
X940Y1462D01*
X1025Y1462D02*
X1031Y1462D01*
X1052Y1462D02*
X1058Y1462D01*
X1123Y1462D02*
X1142Y1462D01*
X1915Y1462D02*
X2049Y1462D01*
X150Y1461D02*
X182Y1461D01*
X539Y1461D02*
X571Y1461D01*
X831Y1461D02*
X863Y1461D01*
X935Y1461D02*
X940Y1461D01*
X1025Y1461D02*
X1031Y1461D01*
X1052Y1461D02*
X1058Y1461D01*
X1124Y1461D02*
X1142Y1461D01*
X1915Y1461D02*
X2049Y1461D01*
X150Y1460D02*
X182Y1460D01*
X539Y1460D02*
X571Y1460D01*
X831Y1460D02*
X863Y1460D01*
X935Y1460D02*
X941Y1460D01*
X1025Y1460D02*
X1031Y1460D01*
X1052Y1460D02*
X1058Y1460D01*
X1125Y1460D02*
X1142Y1460D01*
X1915Y1460D02*
X2049Y1460D01*
X150Y1459D02*
X156Y1459D01*
X176Y1459D02*
X182Y1459D01*
X539Y1459D02*
X545Y1459D01*
X552Y1459D02*
X558Y1459D01*
X566Y1459D02*
X571Y1459D01*
X831Y1459D02*
X837Y1459D01*
X857Y1459D02*
X863Y1459D01*
X935Y1459D02*
X941Y1459D01*
X1025Y1459D02*
X1031Y1459D01*
X1052Y1459D02*
X1058Y1459D01*
X1136Y1459D02*
X1142Y1459D01*
X1915Y1459D02*
X2049Y1459D01*
X150Y1458D02*
X156Y1458D01*
X176Y1458D02*
X182Y1458D01*
X539Y1458D02*
X545Y1458D01*
X552Y1458D02*
X558Y1458D01*
X566Y1458D02*
X571Y1458D01*
X831Y1458D02*
X837Y1458D01*
X857Y1458D02*
X863Y1458D01*
X935Y1458D02*
X941Y1458D01*
X1025Y1458D02*
X1031Y1458D01*
X1052Y1458D02*
X1058Y1458D01*
X1136Y1458D02*
X1142Y1458D01*
X1915Y1458D02*
X2049Y1458D01*
X150Y1457D02*
X157Y1457D01*
X177Y1457D02*
X182Y1457D01*
X539Y1457D02*
X545Y1457D01*
X552Y1457D02*
X558Y1457D01*
X566Y1457D02*
X571Y1457D01*
X831Y1457D02*
X838Y1457D01*
X858Y1457D02*
X863Y1457D01*
X935Y1457D02*
X941Y1457D01*
X1025Y1457D02*
X1031Y1457D01*
X1052Y1457D02*
X1058Y1457D01*
X1136Y1457D02*
X1142Y1457D01*
X1915Y1457D02*
X2049Y1457D01*
X150Y1456D02*
X158Y1456D01*
X177Y1456D02*
X182Y1456D01*
X539Y1456D02*
X544Y1456D01*
X552Y1456D02*
X558Y1456D01*
X566Y1456D02*
X571Y1456D01*
X832Y1456D02*
X839Y1456D01*
X858Y1456D02*
X863Y1456D01*
X935Y1456D02*
X941Y1456D01*
X1025Y1456D02*
X1031Y1456D01*
X1052Y1456D02*
X1058Y1456D01*
X1136Y1456D02*
X1142Y1456D01*
X1915Y1456D02*
X1984Y1456D01*
X2003Y1456D02*
X2049Y1456D01*
X151Y1455D02*
X158Y1455D01*
X178Y1455D02*
X181Y1455D01*
X540Y1455D02*
X543Y1455D01*
X552Y1455D02*
X558Y1455D01*
X567Y1455D02*
X570Y1455D01*
X832Y1455D02*
X840Y1455D01*
X859Y1455D02*
X862Y1455D01*
X935Y1455D02*
X941Y1455D01*
X1025Y1455D02*
X1031Y1455D01*
X1052Y1455D02*
X1058Y1455D01*
X1136Y1455D02*
X1142Y1455D01*
X1915Y1455D02*
X1981Y1455D01*
X2006Y1455D02*
X2049Y1455D01*
X152Y1454D02*
X159Y1454D01*
X552Y1454D02*
X558Y1454D01*
X833Y1454D02*
X840Y1454D01*
X935Y1454D02*
X941Y1454D01*
X1025Y1454D02*
X1031Y1454D01*
X1052Y1454D02*
X1058Y1454D01*
X1136Y1454D02*
X1142Y1454D01*
X1915Y1454D02*
X1979Y1454D01*
X2007Y1454D02*
X2049Y1454D01*
X152Y1453D02*
X160Y1453D01*
X552Y1453D02*
X558Y1453D01*
X833Y1453D02*
X841Y1453D01*
X935Y1453D02*
X941Y1453D01*
X1025Y1453D02*
X1031Y1453D01*
X1052Y1453D02*
X1058Y1453D01*
X1136Y1453D02*
X1142Y1453D01*
X1915Y1453D02*
X1977Y1453D01*
X2007Y1453D02*
X2049Y1453D01*
X153Y1452D02*
X161Y1452D01*
X208Y1452D02*
X221Y1452D01*
X249Y1452D02*
X251Y1452D01*
X263Y1452D02*
X271Y1452D01*
X303Y1452D02*
X321Y1452D01*
X354Y1452D02*
X367Y1452D01*
X395Y1452D02*
X397Y1452D01*
X408Y1452D02*
X418Y1452D01*
X444Y1452D02*
X446Y1452D01*
X470Y1452D02*
X472Y1452D01*
X552Y1452D02*
X558Y1452D01*
X597Y1452D02*
X610Y1452D01*
X638Y1452D02*
X640Y1452D01*
X652Y1452D02*
X661Y1452D01*
X695Y1452D02*
X704Y1452D01*
X714Y1452D02*
X715Y1452D01*
X735Y1452D02*
X737Y1452D01*
X762Y1452D02*
X764Y1452D01*
X792Y1452D02*
X805Y1452D01*
X834Y1452D02*
X842Y1452D01*
X889Y1452D02*
X902Y1452D01*
X930Y1452D02*
X955Y1452D01*
X1025Y1452D02*
X1031Y1452D01*
X1052Y1452D02*
X1058Y1452D01*
X1136Y1452D02*
X1142Y1452D01*
X1915Y1452D02*
X1976Y1452D01*
X2008Y1452D02*
X2049Y1452D01*
X154Y1451D02*
X162Y1451D01*
X206Y1451D02*
X223Y1451D01*
X248Y1451D02*
X252Y1451D01*
X261Y1451D02*
X274Y1451D01*
X300Y1451D02*
X324Y1451D01*
X352Y1451D02*
X369Y1451D01*
X394Y1451D02*
X398Y1451D01*
X407Y1451D02*
X420Y1451D01*
X442Y1451D02*
X447Y1451D01*
X469Y1451D02*
X473Y1451D01*
X552Y1451D02*
X558Y1451D01*
X595Y1451D02*
X613Y1451D01*
X637Y1451D02*
X641Y1451D01*
X650Y1451D02*
X663Y1451D01*
X692Y1451D02*
X706Y1451D01*
X712Y1451D02*
X717Y1451D01*
X734Y1451D02*
X739Y1451D01*
X761Y1451D02*
X765Y1451D01*
X790Y1451D02*
X807Y1451D01*
X835Y1451D02*
X843Y1451D01*
X887Y1451D02*
X905Y1451D01*
X929Y1451D02*
X957Y1451D01*
X1026Y1451D02*
X1032Y1451D01*
X1052Y1451D02*
X1058Y1451D01*
X1136Y1451D02*
X1142Y1451D01*
X1915Y1451D02*
X1975Y1451D01*
X2008Y1451D02*
X2049Y1451D01*
X155Y1450D02*
X162Y1450D01*
X204Y1450D02*
X225Y1450D01*
X247Y1450D02*
X253Y1450D01*
X259Y1450D02*
X275Y1450D01*
X299Y1450D02*
X325Y1450D01*
X350Y1450D02*
X371Y1450D01*
X393Y1450D02*
X399Y1450D01*
X406Y1450D02*
X422Y1450D01*
X442Y1450D02*
X447Y1450D01*
X468Y1450D02*
X474Y1450D01*
X552Y1450D02*
X558Y1450D01*
X594Y1450D02*
X614Y1450D01*
X636Y1450D02*
X642Y1450D01*
X648Y1450D02*
X664Y1450D01*
X691Y1450D02*
X708Y1450D01*
X712Y1450D02*
X717Y1450D01*
X734Y1450D02*
X739Y1450D01*
X760Y1450D02*
X766Y1450D01*
X788Y1450D02*
X809Y1450D01*
X836Y1450D02*
X843Y1450D01*
X886Y1450D02*
X906Y1450D01*
X928Y1450D02*
X957Y1450D01*
X1026Y1450D02*
X1032Y1450D01*
X1051Y1450D02*
X1057Y1450D01*
X1136Y1450D02*
X1142Y1450D01*
X1915Y1450D02*
X1974Y1450D01*
X2008Y1450D02*
X2049Y1450D01*
X155Y1449D02*
X163Y1449D01*
X203Y1449D02*
X226Y1449D01*
X247Y1449D02*
X253Y1449D01*
X257Y1449D02*
X276Y1449D01*
X298Y1449D02*
X326Y1449D01*
X349Y1449D02*
X372Y1449D01*
X393Y1449D02*
X399Y1449D01*
X404Y1449D02*
X423Y1449D01*
X442Y1449D02*
X447Y1449D01*
X468Y1449D02*
X474Y1449D01*
X552Y1449D02*
X558Y1449D01*
X592Y1449D02*
X615Y1449D01*
X636Y1449D02*
X642Y1449D01*
X647Y1449D02*
X665Y1449D01*
X690Y1449D02*
X709Y1449D01*
X712Y1449D02*
X717Y1449D01*
X734Y1449D02*
X739Y1449D01*
X760Y1449D02*
X766Y1449D01*
X787Y1449D02*
X810Y1449D01*
X836Y1449D02*
X844Y1449D01*
X884Y1449D02*
X907Y1449D01*
X928Y1449D02*
X957Y1449D01*
X1026Y1449D02*
X1033Y1449D01*
X1051Y1449D02*
X1057Y1449D01*
X1136Y1449D02*
X1142Y1449D01*
X1915Y1449D02*
X1973Y1449D01*
X2008Y1449D02*
X2049Y1449D01*
X156Y1448D02*
X164Y1448D01*
X202Y1448D02*
X227Y1448D01*
X247Y1448D02*
X253Y1448D01*
X256Y1448D02*
X277Y1448D01*
X298Y1448D02*
X327Y1448D01*
X348Y1448D02*
X373Y1448D01*
X393Y1448D02*
X399Y1448D01*
X403Y1448D02*
X424Y1448D01*
X442Y1448D02*
X447Y1448D01*
X468Y1448D02*
X474Y1448D01*
X552Y1448D02*
X558Y1448D01*
X591Y1448D02*
X616Y1448D01*
X636Y1448D02*
X642Y1448D01*
X645Y1448D02*
X666Y1448D01*
X689Y1448D02*
X717Y1448D01*
X734Y1448D02*
X739Y1448D01*
X760Y1448D02*
X766Y1448D01*
X786Y1448D02*
X811Y1448D01*
X837Y1448D02*
X845Y1448D01*
X883Y1448D02*
X908Y1448D01*
X928Y1448D02*
X957Y1448D01*
X1027Y1448D02*
X1033Y1448D01*
X1050Y1448D02*
X1057Y1448D01*
X1136Y1448D02*
X1142Y1448D01*
X1915Y1448D02*
X1973Y1448D01*
X2008Y1448D02*
X2049Y1448D01*
X157Y1447D02*
X165Y1447D01*
X201Y1447D02*
X228Y1447D01*
X247Y1447D02*
X277Y1447D01*
X297Y1447D02*
X327Y1447D01*
X347Y1447D02*
X374Y1447D01*
X393Y1447D02*
X399Y1447D01*
X402Y1447D02*
X424Y1447D01*
X442Y1447D02*
X447Y1447D01*
X468Y1447D02*
X474Y1447D01*
X552Y1447D02*
X558Y1447D01*
X590Y1447D02*
X617Y1447D01*
X636Y1447D02*
X667Y1447D01*
X688Y1447D02*
X717Y1447D01*
X734Y1447D02*
X739Y1447D01*
X760Y1447D02*
X766Y1447D01*
X785Y1447D02*
X812Y1447D01*
X838Y1447D02*
X846Y1447D01*
X882Y1447D02*
X909Y1447D01*
X929Y1447D02*
X957Y1447D01*
X1027Y1447D02*
X1033Y1447D01*
X1050Y1447D02*
X1056Y1447D01*
X1136Y1447D02*
X1142Y1447D01*
X1915Y1447D02*
X1972Y1447D01*
X2007Y1447D02*
X2049Y1447D01*
X158Y1446D02*
X165Y1446D01*
X200Y1446D02*
X229Y1446D01*
X247Y1446D02*
X278Y1446D01*
X297Y1446D02*
X327Y1446D01*
X346Y1446D02*
X375Y1446D01*
X393Y1446D02*
X399Y1446D01*
X401Y1446D02*
X425Y1446D01*
X442Y1446D02*
X447Y1446D01*
X468Y1446D02*
X474Y1446D01*
X552Y1446D02*
X558Y1446D01*
X590Y1446D02*
X618Y1446D01*
X636Y1446D02*
X667Y1446D01*
X687Y1446D02*
X717Y1446D01*
X734Y1446D02*
X739Y1446D01*
X760Y1446D02*
X766Y1446D01*
X784Y1446D02*
X813Y1446D01*
X839Y1446D02*
X847Y1446D01*
X881Y1446D02*
X910Y1446D01*
X930Y1446D02*
X955Y1446D01*
X1027Y1446D02*
X1034Y1446D01*
X1050Y1446D02*
X1056Y1446D01*
X1136Y1446D02*
X1142Y1446D01*
X1915Y1446D02*
X1972Y1446D01*
X2006Y1446D02*
X2049Y1446D01*
X158Y1445D02*
X166Y1445D01*
X200Y1445D02*
X208Y1445D01*
X221Y1445D02*
X230Y1445D01*
X247Y1445D02*
X263Y1445D01*
X271Y1445D02*
X278Y1445D01*
X297Y1445D02*
X303Y1445D01*
X321Y1445D02*
X327Y1445D01*
X346Y1445D02*
X354Y1445D01*
X367Y1445D02*
X376Y1445D01*
X393Y1445D02*
X409Y1445D01*
X418Y1445D02*
X425Y1445D01*
X442Y1445D02*
X447Y1445D01*
X468Y1445D02*
X474Y1445D01*
X552Y1445D02*
X558Y1445D01*
X589Y1445D02*
X597Y1445D01*
X611Y1445D02*
X619Y1445D01*
X636Y1445D02*
X652Y1445D01*
X661Y1445D02*
X668Y1445D01*
X686Y1445D02*
X695Y1445D01*
X704Y1445D02*
X717Y1445D01*
X734Y1445D02*
X739Y1445D01*
X760Y1445D02*
X766Y1445D01*
X784Y1445D02*
X792Y1445D01*
X805Y1445D02*
X813Y1445D01*
X840Y1445D02*
X847Y1445D01*
X881Y1445D02*
X889Y1445D01*
X902Y1445D02*
X911Y1445D01*
X935Y1445D02*
X941Y1445D01*
X1028Y1445D02*
X1034Y1445D01*
X1049Y1445D02*
X1056Y1445D01*
X1136Y1445D02*
X1142Y1445D01*
X1915Y1445D02*
X1971Y1445D01*
X2005Y1445D02*
X2049Y1445D01*
X159Y1444D02*
X167Y1444D01*
X199Y1444D02*
X207Y1444D01*
X223Y1444D02*
X230Y1444D01*
X247Y1444D02*
X261Y1444D01*
X272Y1444D02*
X279Y1444D01*
X297Y1444D02*
X302Y1444D01*
X323Y1444D02*
X327Y1444D01*
X345Y1444D02*
X353Y1444D01*
X369Y1444D02*
X376Y1444D01*
X393Y1444D02*
X408Y1444D01*
X419Y1444D02*
X425Y1444D01*
X442Y1444D02*
X447Y1444D01*
X468Y1444D02*
X474Y1444D01*
X552Y1444D02*
X558Y1444D01*
X588Y1444D02*
X596Y1444D01*
X612Y1444D02*
X619Y1444D01*
X636Y1444D02*
X651Y1444D01*
X661Y1444D02*
X668Y1444D01*
X686Y1444D02*
X693Y1444D01*
X706Y1444D02*
X717Y1444D01*
X734Y1444D02*
X739Y1444D01*
X760Y1444D02*
X766Y1444D01*
X783Y1444D02*
X791Y1444D01*
X807Y1444D02*
X814Y1444D01*
X840Y1444D02*
X848Y1444D01*
X880Y1444D02*
X888Y1444D01*
X904Y1444D02*
X911Y1444D01*
X935Y1444D02*
X941Y1444D01*
X1028Y1444D02*
X1035Y1444D01*
X1049Y1444D02*
X1055Y1444D01*
X1136Y1444D02*
X1142Y1444D01*
X1915Y1444D02*
X1971Y1444D01*
X1991Y1444D02*
X2049Y1444D01*
X160Y1443D02*
X168Y1443D01*
X199Y1443D02*
X206Y1443D01*
X224Y1443D02*
X230Y1443D01*
X247Y1443D02*
X260Y1443D01*
X273Y1443D02*
X279Y1443D01*
X297Y1443D02*
X302Y1443D01*
X324Y1443D02*
X325Y1443D01*
X345Y1443D02*
X352Y1443D01*
X370Y1443D02*
X376Y1443D01*
X393Y1443D02*
X407Y1443D01*
X420Y1443D02*
X425Y1443D01*
X442Y1443D02*
X448Y1443D01*
X468Y1443D02*
X474Y1443D01*
X552Y1443D02*
X558Y1443D01*
X588Y1443D02*
X595Y1443D01*
X613Y1443D02*
X620Y1443D01*
X636Y1443D02*
X649Y1443D01*
X662Y1443D02*
X668Y1443D01*
X685Y1443D02*
X692Y1443D01*
X707Y1443D02*
X717Y1443D01*
X734Y1443D02*
X739Y1443D01*
X760Y1443D02*
X766Y1443D01*
X783Y1443D02*
X789Y1443D01*
X808Y1443D02*
X814Y1443D01*
X841Y1443D02*
X849Y1443D01*
X880Y1443D02*
X887Y1443D01*
X905Y1443D02*
X912Y1443D01*
X935Y1443D02*
X941Y1443D01*
X1029Y1443D02*
X1035Y1443D01*
X1048Y1443D02*
X1055Y1443D01*
X1136Y1443D02*
X1142Y1443D01*
X1915Y1443D02*
X1971Y1443D01*
X1986Y1443D02*
X2049Y1443D01*
X161Y1442D02*
X169Y1442D01*
X199Y1442D02*
X205Y1442D01*
X225Y1442D02*
X231Y1442D01*
X247Y1442D02*
X258Y1442D01*
X273Y1442D02*
X279Y1442D01*
X297Y1442D02*
X303Y1442D01*
X345Y1442D02*
X351Y1442D01*
X370Y1442D02*
X377Y1442D01*
X393Y1442D02*
X406Y1442D01*
X420Y1442D02*
X426Y1442D01*
X442Y1442D02*
X448Y1442D01*
X467Y1442D02*
X474Y1442D01*
X552Y1442D02*
X558Y1442D01*
X588Y1442D02*
X594Y1442D01*
X614Y1442D02*
X620Y1442D01*
X636Y1442D02*
X647Y1442D01*
X662Y1442D02*
X668Y1442D01*
X685Y1442D02*
X691Y1442D01*
X708Y1442D02*
X717Y1442D01*
X734Y1442D02*
X740Y1442D01*
X760Y1442D02*
X766Y1442D01*
X782Y1442D02*
X789Y1442D01*
X808Y1442D02*
X815Y1442D01*
X842Y1442D02*
X850Y1442D01*
X880Y1442D02*
X886Y1442D01*
X906Y1442D02*
X912Y1442D01*
X935Y1442D02*
X941Y1442D01*
X1029Y1442D02*
X1035Y1442D01*
X1048Y1442D02*
X1054Y1442D01*
X1136Y1442D02*
X1142Y1442D01*
X1915Y1442D02*
X1971Y1442D01*
X1985Y1442D02*
X2049Y1442D01*
X162Y1441D02*
X169Y1441D01*
X198Y1441D02*
X204Y1441D01*
X225Y1441D02*
X231Y1441D01*
X247Y1441D02*
X257Y1441D01*
X273Y1441D02*
X279Y1441D01*
X297Y1441D02*
X306Y1441D01*
X344Y1441D02*
X350Y1441D01*
X371Y1441D02*
X377Y1441D01*
X393Y1441D02*
X405Y1441D01*
X420Y1441D02*
X426Y1441D01*
X442Y1441D02*
X449Y1441D01*
X467Y1441D02*
X473Y1441D01*
X552Y1441D02*
X558Y1441D01*
X588Y1441D02*
X594Y1441D01*
X614Y1441D02*
X620Y1441D01*
X636Y1441D02*
X646Y1441D01*
X662Y1441D02*
X668Y1441D01*
X685Y1441D02*
X691Y1441D01*
X709Y1441D02*
X717Y1441D01*
X734Y1441D02*
X740Y1441D01*
X760Y1441D02*
X766Y1441D01*
X782Y1441D02*
X788Y1441D01*
X809Y1441D02*
X815Y1441D01*
X843Y1441D02*
X850Y1441D01*
X880Y1441D02*
X885Y1441D01*
X906Y1441D02*
X912Y1441D01*
X935Y1441D02*
X941Y1441D01*
X1029Y1441D02*
X1036Y1441D01*
X1048Y1441D02*
X1054Y1441D01*
X1136Y1441D02*
X1142Y1441D01*
X1915Y1441D02*
X1971Y1441D01*
X1984Y1441D02*
X2049Y1441D01*
X162Y1440D02*
X170Y1440D01*
X198Y1440D02*
X204Y1440D01*
X225Y1440D02*
X231Y1440D01*
X247Y1440D02*
X255Y1440D01*
X273Y1440D02*
X279Y1440D01*
X298Y1440D02*
X308Y1440D01*
X344Y1440D02*
X350Y1440D01*
X371Y1440D02*
X377Y1440D01*
X393Y1440D02*
X403Y1440D01*
X420Y1440D02*
X425Y1440D01*
X443Y1440D02*
X449Y1440D01*
X467Y1440D02*
X473Y1440D01*
X552Y1440D02*
X558Y1440D01*
X588Y1440D02*
X593Y1440D01*
X614Y1440D02*
X620Y1440D01*
X636Y1440D02*
X644Y1440D01*
X662Y1440D02*
X668Y1440D01*
X685Y1440D02*
X691Y1440D01*
X710Y1440D02*
X717Y1440D01*
X734Y1440D02*
X740Y1440D01*
X760Y1440D02*
X766Y1440D01*
X782Y1440D02*
X788Y1440D01*
X809Y1440D02*
X815Y1440D01*
X843Y1440D02*
X851Y1440D01*
X880Y1440D02*
X885Y1440D01*
X906Y1440D02*
X912Y1440D01*
X935Y1440D02*
X941Y1440D01*
X1030Y1440D02*
X1036Y1440D01*
X1047Y1440D02*
X1054Y1440D01*
X1136Y1440D02*
X1142Y1440D01*
X1915Y1440D02*
X1970Y1440D01*
X1984Y1440D02*
X2049Y1440D01*
X163Y1439D02*
X171Y1439D01*
X198Y1439D02*
X204Y1439D01*
X225Y1439D02*
X231Y1439D01*
X247Y1439D02*
X254Y1439D01*
X273Y1439D02*
X279Y1439D01*
X298Y1439D02*
X310Y1439D01*
X344Y1439D02*
X350Y1439D01*
X371Y1439D02*
X377Y1439D01*
X393Y1439D02*
X402Y1439D01*
X420Y1439D02*
X425Y1439D01*
X443Y1439D02*
X450Y1439D01*
X466Y1439D02*
X473Y1439D01*
X552Y1439D02*
X558Y1439D01*
X588Y1439D02*
X593Y1439D01*
X614Y1439D02*
X620Y1439D01*
X636Y1439D02*
X643Y1439D01*
X662Y1439D02*
X668Y1439D01*
X685Y1439D02*
X691Y1439D01*
X711Y1439D02*
X717Y1439D01*
X734Y1439D02*
X740Y1439D01*
X760Y1439D02*
X766Y1439D01*
X782Y1439D02*
X788Y1439D01*
X809Y1439D02*
X815Y1439D01*
X844Y1439D02*
X852Y1439D01*
X879Y1439D02*
X885Y1439D01*
X906Y1439D02*
X912Y1439D01*
X935Y1439D02*
X941Y1439D01*
X1030Y1439D02*
X1037Y1439D01*
X1047Y1439D02*
X1053Y1439D01*
X1136Y1439D02*
X1142Y1439D01*
X1915Y1439D02*
X1970Y1439D01*
X1984Y1439D02*
X2049Y1439D01*
X164Y1438D02*
X172Y1438D01*
X198Y1438D02*
X204Y1438D01*
X225Y1438D02*
X231Y1438D01*
X247Y1438D02*
X253Y1438D01*
X273Y1438D02*
X279Y1438D01*
X299Y1438D02*
X313Y1438D01*
X344Y1438D02*
X350Y1438D01*
X371Y1438D02*
X377Y1438D01*
X393Y1438D02*
X401Y1438D01*
X421Y1438D02*
X424Y1438D01*
X444Y1438D02*
X450Y1438D01*
X466Y1438D02*
X472Y1438D01*
X552Y1438D02*
X558Y1438D01*
X588Y1438D02*
X593Y1438D01*
X614Y1438D02*
X620Y1438D01*
X636Y1438D02*
X642Y1438D01*
X662Y1438D02*
X668Y1438D01*
X685Y1438D02*
X691Y1438D01*
X711Y1438D02*
X717Y1438D01*
X734Y1438D02*
X740Y1438D01*
X760Y1438D02*
X766Y1438D01*
X782Y1438D02*
X788Y1438D01*
X809Y1438D02*
X815Y1438D01*
X845Y1438D02*
X853Y1438D01*
X879Y1438D02*
X885Y1438D01*
X906Y1438D02*
X912Y1438D01*
X935Y1438D02*
X941Y1438D01*
X1031Y1438D02*
X1037Y1438D01*
X1046Y1438D02*
X1053Y1438D01*
X1136Y1438D02*
X1142Y1438D01*
X1152Y1438D02*
X1153Y1438D01*
X1915Y1438D02*
X1970Y1438D01*
X1984Y1438D02*
X2049Y1438D01*
X165Y1437D02*
X172Y1437D01*
X198Y1437D02*
X204Y1437D01*
X225Y1437D02*
X231Y1437D01*
X247Y1437D02*
X253Y1437D01*
X273Y1437D02*
X279Y1437D01*
X300Y1437D02*
X315Y1437D01*
X344Y1437D02*
X350Y1437D01*
X371Y1437D02*
X377Y1437D01*
X393Y1437D02*
X400Y1437D01*
X444Y1437D02*
X450Y1437D01*
X465Y1437D02*
X472Y1437D01*
X552Y1437D02*
X558Y1437D01*
X588Y1437D02*
X593Y1437D01*
X614Y1437D02*
X620Y1437D01*
X636Y1437D02*
X642Y1437D01*
X662Y1437D02*
X668Y1437D01*
X685Y1437D02*
X691Y1437D01*
X712Y1437D02*
X717Y1437D01*
X734Y1437D02*
X740Y1437D01*
X760Y1437D02*
X766Y1437D01*
X782Y1437D02*
X788Y1437D01*
X809Y1437D02*
X815Y1437D01*
X846Y1437D02*
X854Y1437D01*
X879Y1437D02*
X885Y1437D01*
X906Y1437D02*
X912Y1437D01*
X935Y1437D02*
X941Y1437D01*
X1031Y1437D02*
X1037Y1437D01*
X1046Y1437D02*
X1052Y1437D01*
X1136Y1437D02*
X1142Y1437D01*
X1150Y1437D02*
X1154Y1437D01*
X1915Y1437D02*
X1970Y1437D01*
X1984Y1437D02*
X2049Y1437D01*
X165Y1436D02*
X173Y1436D01*
X198Y1436D02*
X204Y1436D01*
X225Y1436D02*
X231Y1436D01*
X247Y1436D02*
X253Y1436D01*
X273Y1436D02*
X279Y1436D01*
X301Y1436D02*
X317Y1436D01*
X344Y1436D02*
X350Y1436D01*
X371Y1436D02*
X377Y1436D01*
X393Y1436D02*
X399Y1436D01*
X445Y1436D02*
X451Y1436D01*
X465Y1436D02*
X471Y1436D01*
X552Y1436D02*
X558Y1436D01*
X588Y1436D02*
X593Y1436D01*
X614Y1436D02*
X620Y1436D01*
X636Y1436D02*
X642Y1436D01*
X662Y1436D02*
X668Y1436D01*
X685Y1436D02*
X691Y1436D01*
X712Y1436D02*
X717Y1436D01*
X734Y1436D02*
X740Y1436D01*
X760Y1436D02*
X766Y1436D01*
X782Y1436D02*
X788Y1436D01*
X809Y1436D02*
X815Y1436D01*
X847Y1436D02*
X854Y1436D01*
X879Y1436D02*
X885Y1436D01*
X906Y1436D02*
X912Y1436D01*
X935Y1436D02*
X941Y1436D01*
X1031Y1436D02*
X1038Y1436D01*
X1046Y1436D02*
X1052Y1436D01*
X1136Y1436D02*
X1142Y1436D01*
X1150Y1436D02*
X1155Y1436D01*
X1915Y1436D02*
X1970Y1436D01*
X1984Y1436D02*
X2049Y1436D01*
X166Y1435D02*
X174Y1435D01*
X198Y1435D02*
X231Y1435D01*
X247Y1435D02*
X253Y1435D01*
X273Y1435D02*
X279Y1435D01*
X304Y1435D02*
X320Y1435D01*
X344Y1435D02*
X350Y1435D01*
X371Y1435D02*
X377Y1435D01*
X393Y1435D02*
X399Y1435D01*
X445Y1435D02*
X451Y1435D01*
X464Y1435D02*
X471Y1435D01*
X552Y1435D02*
X558Y1435D01*
X588Y1435D02*
X593Y1435D01*
X614Y1435D02*
X620Y1435D01*
X636Y1435D02*
X642Y1435D01*
X662Y1435D02*
X668Y1435D01*
X685Y1435D02*
X691Y1435D01*
X712Y1435D02*
X717Y1435D01*
X734Y1435D02*
X740Y1435D01*
X760Y1435D02*
X766Y1435D01*
X782Y1435D02*
X815Y1435D01*
X847Y1435D02*
X855Y1435D01*
X879Y1435D02*
X912Y1435D01*
X935Y1435D02*
X941Y1435D01*
X1032Y1435D02*
X1038Y1435D01*
X1045Y1435D02*
X1052Y1435D01*
X1086Y1435D02*
X1094Y1435D01*
X1136Y1435D02*
X1142Y1435D01*
X1150Y1435D02*
X1155Y1435D01*
X1915Y1435D02*
X1970Y1435D01*
X1984Y1435D02*
X2049Y1435D01*
X167Y1434D02*
X175Y1434D01*
X198Y1434D02*
X231Y1434D01*
X247Y1434D02*
X253Y1434D01*
X273Y1434D02*
X279Y1434D01*
X306Y1434D02*
X322Y1434D01*
X344Y1434D02*
X350Y1434D01*
X371Y1434D02*
X377Y1434D01*
X393Y1434D02*
X399Y1434D01*
X445Y1434D02*
X452Y1434D01*
X464Y1434D02*
X470Y1434D01*
X552Y1434D02*
X558Y1434D01*
X588Y1434D02*
X593Y1434D01*
X614Y1434D02*
X620Y1434D01*
X636Y1434D02*
X642Y1434D01*
X662Y1434D02*
X668Y1434D01*
X685Y1434D02*
X691Y1434D01*
X712Y1434D02*
X717Y1434D01*
X734Y1434D02*
X740Y1434D01*
X760Y1434D02*
X766Y1434D01*
X782Y1434D02*
X815Y1434D01*
X848Y1434D02*
X856Y1434D01*
X879Y1434D02*
X912Y1434D01*
X935Y1434D02*
X941Y1434D01*
X1032Y1434D02*
X1038Y1434D01*
X1045Y1434D02*
X1051Y1434D01*
X1085Y1434D02*
X1096Y1434D01*
X1136Y1434D02*
X1142Y1434D01*
X1149Y1434D02*
X1155Y1434D01*
X1915Y1434D02*
X1970Y1434D01*
X1984Y1434D02*
X2049Y1434D01*
X168Y1433D02*
X176Y1433D01*
X198Y1433D02*
X231Y1433D01*
X247Y1433D02*
X253Y1433D01*
X273Y1433D02*
X279Y1433D01*
X308Y1433D02*
X324Y1433D01*
X344Y1433D02*
X350Y1433D01*
X371Y1433D02*
X377Y1433D01*
X393Y1433D02*
X399Y1433D01*
X446Y1433D02*
X452Y1433D01*
X463Y1433D02*
X470Y1433D01*
X552Y1433D02*
X558Y1433D01*
X588Y1433D02*
X593Y1433D01*
X614Y1433D02*
X620Y1433D01*
X636Y1433D02*
X642Y1433D01*
X662Y1433D02*
X668Y1433D01*
X685Y1433D02*
X691Y1433D01*
X712Y1433D02*
X717Y1433D01*
X734Y1433D02*
X740Y1433D01*
X760Y1433D02*
X766Y1433D01*
X782Y1433D02*
X815Y1433D01*
X849Y1433D02*
X857Y1433D01*
X879Y1433D02*
X912Y1433D01*
X935Y1433D02*
X941Y1433D01*
X1032Y1433D02*
X1039Y1433D01*
X1045Y1433D02*
X1051Y1433D01*
X1084Y1433D02*
X1096Y1433D01*
X1136Y1433D02*
X1142Y1433D01*
X1149Y1433D02*
X1155Y1433D01*
X1915Y1433D02*
X1970Y1433D01*
X1984Y1433D02*
X2049Y1433D01*
X169Y1432D02*
X176Y1432D01*
X198Y1432D02*
X231Y1432D01*
X247Y1432D02*
X253Y1432D01*
X273Y1432D02*
X279Y1432D01*
X310Y1432D02*
X325Y1432D01*
X344Y1432D02*
X350Y1432D01*
X371Y1432D02*
X377Y1432D01*
X393Y1432D02*
X399Y1432D01*
X446Y1432D02*
X453Y1432D01*
X463Y1432D02*
X469Y1432D01*
X552Y1432D02*
X558Y1432D01*
X588Y1432D02*
X593Y1432D01*
X614Y1432D02*
X620Y1432D01*
X636Y1432D02*
X642Y1432D01*
X662Y1432D02*
X668Y1432D01*
X685Y1432D02*
X691Y1432D01*
X712Y1432D02*
X717Y1432D01*
X734Y1432D02*
X740Y1432D01*
X760Y1432D02*
X766Y1432D01*
X782Y1432D02*
X815Y1432D01*
X850Y1432D02*
X857Y1432D01*
X879Y1432D02*
X912Y1432D01*
X935Y1432D02*
X941Y1432D01*
X1033Y1432D02*
X1039Y1432D01*
X1044Y1432D02*
X1050Y1432D01*
X1084Y1432D02*
X1097Y1432D01*
X1136Y1432D02*
X1142Y1432D01*
X1149Y1432D02*
X1155Y1432D01*
X1915Y1432D02*
X1970Y1432D01*
X1984Y1432D02*
X2049Y1432D01*
X169Y1431D02*
X177Y1431D01*
X198Y1431D02*
X231Y1431D01*
X247Y1431D02*
X253Y1431D01*
X273Y1431D02*
X279Y1431D01*
X313Y1431D02*
X326Y1431D01*
X344Y1431D02*
X350Y1431D01*
X371Y1431D02*
X377Y1431D01*
X393Y1431D02*
X399Y1431D01*
X447Y1431D02*
X453Y1431D01*
X463Y1431D02*
X469Y1431D01*
X552Y1431D02*
X558Y1431D01*
X588Y1431D02*
X593Y1431D01*
X614Y1431D02*
X620Y1431D01*
X636Y1431D02*
X642Y1431D01*
X662Y1431D02*
X668Y1431D01*
X685Y1431D02*
X691Y1431D01*
X711Y1431D02*
X717Y1431D01*
X734Y1431D02*
X740Y1431D01*
X760Y1431D02*
X766Y1431D01*
X782Y1431D02*
X815Y1431D01*
X850Y1431D02*
X858Y1431D01*
X879Y1431D02*
X912Y1431D01*
X935Y1431D02*
X941Y1431D01*
X1033Y1431D02*
X1040Y1431D01*
X1044Y1431D02*
X1050Y1431D01*
X1084Y1431D02*
X1097Y1431D01*
X1136Y1431D02*
X1142Y1431D01*
X1149Y1431D02*
X1155Y1431D01*
X1915Y1431D02*
X1963Y1431D01*
X1994Y1431D02*
X2049Y1431D01*
X170Y1430D02*
X178Y1430D01*
X198Y1430D02*
X230Y1430D01*
X247Y1430D02*
X253Y1430D01*
X273Y1430D02*
X279Y1430D01*
X315Y1430D02*
X326Y1430D01*
X344Y1430D02*
X350Y1430D01*
X371Y1430D02*
X377Y1430D01*
X393Y1430D02*
X399Y1430D01*
X447Y1430D02*
X454Y1430D01*
X462Y1430D02*
X469Y1430D01*
X552Y1430D02*
X558Y1430D01*
X588Y1430D02*
X593Y1430D01*
X614Y1430D02*
X620Y1430D01*
X636Y1430D02*
X642Y1430D01*
X663Y1430D02*
X668Y1430D01*
X685Y1430D02*
X691Y1430D01*
X711Y1430D02*
X717Y1430D01*
X734Y1430D02*
X740Y1430D01*
X760Y1430D02*
X766Y1430D01*
X782Y1430D02*
X814Y1430D01*
X851Y1430D02*
X859Y1430D01*
X879Y1430D02*
X911Y1430D01*
X935Y1430D02*
X941Y1430D01*
X1034Y1430D02*
X1040Y1430D01*
X1043Y1430D02*
X1050Y1430D01*
X1084Y1430D02*
X1097Y1430D01*
X1136Y1430D02*
X1142Y1430D01*
X1149Y1430D02*
X1155Y1430D01*
X1915Y1430D02*
X1961Y1430D01*
X1996Y1430D02*
X2049Y1430D01*
X171Y1429D02*
X179Y1429D01*
X198Y1429D02*
X229Y1429D01*
X247Y1429D02*
X253Y1429D01*
X273Y1429D02*
X279Y1429D01*
X317Y1429D02*
X327Y1429D01*
X344Y1429D02*
X350Y1429D01*
X371Y1429D02*
X377Y1429D01*
X393Y1429D02*
X399Y1429D01*
X448Y1429D02*
X454Y1429D01*
X462Y1429D02*
X468Y1429D01*
X552Y1429D02*
X558Y1429D01*
X588Y1429D02*
X593Y1429D01*
X614Y1429D02*
X620Y1429D01*
X636Y1429D02*
X642Y1429D01*
X663Y1429D02*
X668Y1429D01*
X685Y1429D02*
X691Y1429D01*
X710Y1429D02*
X717Y1429D01*
X734Y1429D02*
X740Y1429D01*
X760Y1429D02*
X766Y1429D01*
X782Y1429D02*
X813Y1429D01*
X852Y1429D02*
X860Y1429D01*
X879Y1429D02*
X910Y1429D01*
X935Y1429D02*
X941Y1429D01*
X1034Y1429D02*
X1040Y1429D01*
X1043Y1429D02*
X1049Y1429D01*
X1084Y1429D02*
X1097Y1429D01*
X1136Y1429D02*
X1142Y1429D01*
X1149Y1429D02*
X1155Y1429D01*
X1915Y1429D02*
X1959Y1429D01*
X1998Y1429D02*
X2049Y1429D01*
X172Y1428D02*
X179Y1428D01*
X198Y1428D02*
X204Y1428D01*
X247Y1428D02*
X253Y1428D01*
X273Y1428D02*
X279Y1428D01*
X320Y1428D02*
X327Y1428D01*
X344Y1428D02*
X350Y1428D01*
X371Y1428D02*
X377Y1428D01*
X393Y1428D02*
X399Y1428D01*
X448Y1428D02*
X454Y1428D01*
X461Y1428D02*
X468Y1428D01*
X552Y1428D02*
X558Y1428D01*
X588Y1428D02*
X593Y1428D01*
X614Y1428D02*
X620Y1428D01*
X636Y1428D02*
X642Y1428D01*
X663Y1428D02*
X668Y1428D01*
X685Y1428D02*
X691Y1428D01*
X709Y1428D02*
X717Y1428D01*
X734Y1428D02*
X740Y1428D01*
X760Y1428D02*
X766Y1428D01*
X782Y1428D02*
X788Y1428D01*
X853Y1428D02*
X861Y1428D01*
X879Y1428D02*
X885Y1428D01*
X935Y1428D02*
X941Y1428D01*
X1034Y1428D02*
X1041Y1428D01*
X1043Y1428D02*
X1049Y1428D01*
X1084Y1428D02*
X1097Y1428D01*
X1136Y1428D02*
X1142Y1428D01*
X1149Y1428D02*
X1155Y1428D01*
X1915Y1428D02*
X1959Y1428D01*
X1998Y1428D02*
X2049Y1428D01*
X172Y1427D02*
X180Y1427D01*
X198Y1427D02*
X204Y1427D01*
X247Y1427D02*
X253Y1427D01*
X273Y1427D02*
X279Y1427D01*
X321Y1427D02*
X328Y1427D01*
X344Y1427D02*
X350Y1427D01*
X371Y1427D02*
X377Y1427D01*
X393Y1427D02*
X399Y1427D01*
X448Y1427D02*
X455Y1427D01*
X461Y1427D02*
X467Y1427D01*
X552Y1427D02*
X558Y1427D01*
X588Y1427D02*
X593Y1427D01*
X614Y1427D02*
X620Y1427D01*
X636Y1427D02*
X642Y1427D01*
X663Y1427D02*
X668Y1427D01*
X685Y1427D02*
X691Y1427D01*
X707Y1427D02*
X717Y1427D01*
X734Y1427D02*
X740Y1427D01*
X759Y1427D02*
X766Y1427D01*
X782Y1427D02*
X788Y1427D01*
X854Y1427D02*
X861Y1427D01*
X879Y1427D02*
X885Y1427D01*
X935Y1427D02*
X941Y1427D01*
X1035Y1427D02*
X1049Y1427D01*
X1084Y1427D02*
X1097Y1427D01*
X1136Y1427D02*
X1142Y1427D01*
X1149Y1427D02*
X1155Y1427D01*
X1915Y1427D02*
X1958Y1427D01*
X1999Y1427D02*
X2049Y1427D01*
X151Y1426D02*
X154Y1426D01*
X173Y1426D02*
X181Y1426D01*
X198Y1426D02*
X204Y1426D01*
X247Y1426D02*
X253Y1426D01*
X273Y1426D02*
X279Y1426D01*
X322Y1426D02*
X328Y1426D01*
X344Y1426D02*
X350Y1426D01*
X371Y1426D02*
X377Y1426D01*
X393Y1426D02*
X399Y1426D01*
X449Y1426D02*
X455Y1426D01*
X460Y1426D02*
X467Y1426D01*
X552Y1426D02*
X558Y1426D01*
X588Y1426D02*
X593Y1426D01*
X614Y1426D02*
X620Y1426D01*
X636Y1426D02*
X642Y1426D01*
X663Y1426D02*
X668Y1426D01*
X685Y1426D02*
X692Y1426D01*
X706Y1426D02*
X717Y1426D01*
X734Y1426D02*
X740Y1426D01*
X757Y1426D02*
X766Y1426D01*
X782Y1426D02*
X788Y1426D01*
X832Y1426D02*
X835Y1426D01*
X854Y1426D02*
X862Y1426D01*
X880Y1426D02*
X885Y1426D01*
X935Y1426D02*
X941Y1426D01*
X956Y1426D02*
X959Y1426D01*
X1035Y1426D02*
X1048Y1426D01*
X1084Y1426D02*
X1097Y1426D01*
X1136Y1426D02*
X1142Y1426D01*
X1149Y1426D02*
X1155Y1426D01*
X1915Y1426D02*
X1958Y1426D01*
X1999Y1426D02*
X2049Y1426D01*
X150Y1425D02*
X155Y1425D01*
X174Y1425D02*
X181Y1425D01*
X199Y1425D02*
X205Y1425D01*
X247Y1425D02*
X253Y1425D01*
X273Y1425D02*
X279Y1425D01*
X322Y1425D02*
X328Y1425D01*
X344Y1425D02*
X351Y1425D01*
X371Y1425D02*
X377Y1425D01*
X393Y1425D02*
X399Y1425D01*
X449Y1425D02*
X456Y1425D01*
X460Y1425D02*
X466Y1425D01*
X552Y1425D02*
X558Y1425D01*
X588Y1425D02*
X594Y1425D01*
X614Y1425D02*
X620Y1425D01*
X636Y1425D02*
X642Y1425D01*
X663Y1425D02*
X668Y1425D01*
X686Y1425D02*
X694Y1425D01*
X705Y1425D02*
X717Y1425D01*
X734Y1425D02*
X740Y1425D01*
X756Y1425D02*
X766Y1425D01*
X782Y1425D02*
X788Y1425D01*
X831Y1425D02*
X836Y1425D01*
X855Y1425D02*
X863Y1425D01*
X880Y1425D02*
X886Y1425D01*
X935Y1425D02*
X941Y1425D01*
X955Y1425D02*
X960Y1425D01*
X1036Y1425D02*
X1048Y1425D01*
X1084Y1425D02*
X1096Y1425D01*
X1136Y1425D02*
X1142Y1425D01*
X1149Y1425D02*
X1155Y1425D01*
X1915Y1425D02*
X1958Y1425D01*
X1999Y1425D02*
X2049Y1425D01*
X150Y1424D02*
X155Y1424D01*
X175Y1424D02*
X182Y1424D01*
X199Y1424D02*
X205Y1424D01*
X247Y1424D02*
X253Y1424D01*
X274Y1424D02*
X279Y1424D01*
X322Y1424D02*
X328Y1424D01*
X345Y1424D02*
X351Y1424D01*
X370Y1424D02*
X377Y1424D01*
X393Y1424D02*
X399Y1424D01*
X450Y1424D02*
X456Y1424D01*
X459Y1424D02*
X466Y1424D01*
X552Y1424D02*
X558Y1424D01*
X588Y1424D02*
X594Y1424D01*
X613Y1424D02*
X620Y1424D01*
X636Y1424D02*
X642Y1424D01*
X663Y1424D02*
X668Y1424D01*
X686Y1424D02*
X696Y1424D01*
X703Y1424D02*
X717Y1424D01*
X734Y1424D02*
X740Y1424D01*
X754Y1424D02*
X766Y1424D01*
X782Y1424D02*
X789Y1424D01*
X831Y1424D02*
X837Y1424D01*
X856Y1424D02*
X863Y1424D01*
X880Y1424D02*
X886Y1424D01*
X935Y1424D02*
X941Y1424D01*
X955Y1424D02*
X961Y1424D01*
X1036Y1424D02*
X1047Y1424D01*
X1085Y1424D02*
X1096Y1424D01*
X1136Y1424D02*
X1142Y1424D01*
X1149Y1424D02*
X1155Y1424D01*
X1915Y1424D02*
X1958Y1424D01*
X1999Y1424D02*
X2049Y1424D01*
X150Y1423D02*
X156Y1423D01*
X176Y1423D02*
X182Y1423D01*
X199Y1423D02*
X206Y1423D01*
X247Y1423D02*
X253Y1423D01*
X274Y1423D02*
X279Y1423D01*
X297Y1423D02*
X300Y1423D01*
X322Y1423D02*
X328Y1423D01*
X345Y1423D02*
X352Y1423D01*
X369Y1423D02*
X376Y1423D01*
X393Y1423D02*
X399Y1423D01*
X450Y1423D02*
X466Y1423D01*
X552Y1423D02*
X558Y1423D01*
X588Y1423D02*
X595Y1423D01*
X612Y1423D02*
X620Y1423D01*
X636Y1423D02*
X642Y1423D01*
X663Y1423D02*
X669Y1423D01*
X687Y1423D02*
X717Y1423D01*
X734Y1423D02*
X740Y1423D01*
X752Y1423D02*
X766Y1423D01*
X783Y1423D02*
X790Y1423D01*
X831Y1423D02*
X837Y1423D01*
X857Y1423D02*
X863Y1423D01*
X880Y1423D02*
X887Y1423D01*
X935Y1423D02*
X941Y1423D01*
X955Y1423D02*
X961Y1423D01*
X1036Y1423D02*
X1047Y1423D01*
X1086Y1423D02*
X1094Y1423D01*
X1136Y1423D02*
X1142Y1423D01*
X1149Y1423D02*
X1155Y1423D01*
X1915Y1423D02*
X1958Y1423D01*
X1998Y1423D02*
X2049Y1423D01*
X150Y1422D02*
X156Y1422D01*
X176Y1422D02*
X182Y1422D01*
X199Y1422D02*
X207Y1422D01*
X247Y1422D02*
X253Y1422D01*
X274Y1422D02*
X279Y1422D01*
X296Y1422D02*
X302Y1422D01*
X321Y1422D02*
X328Y1422D01*
X345Y1422D02*
X353Y1422D01*
X368Y1422D02*
X376Y1422D01*
X393Y1422D02*
X399Y1422D01*
X451Y1422D02*
X465Y1422D01*
X552Y1422D02*
X558Y1422D01*
X589Y1422D02*
X597Y1422D01*
X611Y1422D02*
X619Y1422D01*
X636Y1422D02*
X642Y1422D01*
X663Y1422D02*
X669Y1422D01*
X688Y1422D02*
X717Y1422D01*
X735Y1422D02*
X741Y1422D01*
X751Y1422D02*
X766Y1422D01*
X783Y1422D02*
X791Y1422D01*
X831Y1422D02*
X837Y1422D01*
X857Y1422D02*
X863Y1422D01*
X880Y1422D02*
X889Y1422D01*
X935Y1422D02*
X942Y1422D01*
X954Y1422D02*
X960Y1422D01*
X1037Y1422D02*
X1047Y1422D01*
X1136Y1422D02*
X1142Y1422D01*
X1149Y1422D02*
X1155Y1422D01*
X1915Y1422D02*
X1959Y1422D01*
X1998Y1422D02*
X2049Y1422D01*
X150Y1421D02*
X158Y1421D01*
X175Y1421D02*
X182Y1421D01*
X200Y1421D02*
X210Y1421D01*
X247Y1421D02*
X253Y1421D01*
X274Y1421D02*
X279Y1421D01*
X296Y1421D02*
X304Y1421D01*
X319Y1421D02*
X327Y1421D01*
X346Y1421D02*
X356Y1421D01*
X365Y1421D02*
X375Y1421D01*
X393Y1421D02*
X399Y1421D01*
X451Y1421D02*
X465Y1421D01*
X552Y1421D02*
X558Y1421D01*
X589Y1421D02*
X599Y1421D01*
X608Y1421D02*
X618Y1421D01*
X636Y1421D02*
X642Y1421D01*
X663Y1421D02*
X669Y1421D01*
X689Y1421D02*
X717Y1421D01*
X735Y1421D02*
X744Y1421D01*
X749Y1421D02*
X766Y1421D01*
X784Y1421D02*
X794Y1421D01*
X831Y1421D02*
X839Y1421D01*
X856Y1421D02*
X863Y1421D01*
X881Y1421D02*
X891Y1421D01*
X935Y1421D02*
X944Y1421D01*
X951Y1421D02*
X960Y1421D01*
X1037Y1421D02*
X1046Y1421D01*
X1136Y1421D02*
X1142Y1421D01*
X1149Y1421D02*
X1155Y1421D01*
X1915Y1421D02*
X1959Y1421D01*
X1997Y1421D02*
X2049Y1421D01*
X150Y1420D02*
X182Y1420D01*
X201Y1420D02*
X230Y1420D01*
X247Y1420D02*
X253Y1420D01*
X274Y1420D02*
X279Y1420D01*
X296Y1420D02*
X327Y1420D01*
X347Y1420D02*
X374Y1420D01*
X393Y1420D02*
X399Y1420D01*
X452Y1420D02*
X464Y1420D01*
X552Y1420D02*
X558Y1420D01*
X590Y1420D02*
X618Y1420D01*
X636Y1420D02*
X642Y1420D01*
X663Y1420D02*
X669Y1420D01*
X690Y1420D02*
X709Y1420D01*
X712Y1420D02*
X717Y1420D01*
X735Y1420D02*
X766Y1420D01*
X784Y1420D02*
X814Y1420D01*
X831Y1420D02*
X863Y1420D01*
X882Y1420D02*
X911Y1420D01*
X936Y1420D02*
X960Y1420D01*
X1038Y1420D02*
X1046Y1420D01*
X1124Y1420D02*
X1155Y1420D01*
X1915Y1420D02*
X1961Y1420D01*
X1996Y1420D02*
X2049Y1420D01*
X151Y1419D02*
X182Y1419D01*
X202Y1419D02*
X231Y1419D01*
X247Y1419D02*
X253Y1419D01*
X274Y1419D02*
X279Y1419D01*
X296Y1419D02*
X327Y1419D01*
X348Y1419D02*
X373Y1419D01*
X393Y1419D02*
X399Y1419D01*
X452Y1419D02*
X464Y1419D01*
X552Y1419D02*
X558Y1419D01*
X591Y1419D02*
X617Y1419D01*
X636Y1419D02*
X642Y1419D01*
X663Y1419D02*
X669Y1419D01*
X692Y1419D02*
X707Y1419D01*
X712Y1419D02*
X717Y1419D01*
X736Y1419D02*
X758Y1419D01*
X760Y1419D02*
X766Y1419D01*
X785Y1419D02*
X814Y1419D01*
X832Y1419D02*
X863Y1419D01*
X883Y1419D02*
X912Y1419D01*
X936Y1419D02*
X959Y1419D01*
X1038Y1419D02*
X1045Y1419D01*
X1123Y1419D02*
X1155Y1419D01*
X1915Y1419D02*
X1964Y1419D01*
X1993Y1419D02*
X2049Y1419D01*
X152Y1418D02*
X181Y1418D01*
X203Y1418D02*
X231Y1418D01*
X247Y1418D02*
X253Y1418D01*
X274Y1418D02*
X279Y1418D01*
X297Y1418D02*
X326Y1418D01*
X349Y1418D02*
X372Y1418D01*
X393Y1418D02*
X399Y1418D01*
X453Y1418D02*
X463Y1418D01*
X552Y1418D02*
X558Y1418D01*
X592Y1418D02*
X616Y1418D01*
X636Y1418D02*
X642Y1418D01*
X663Y1418D02*
X669Y1418D01*
X693Y1418D02*
X706Y1418D01*
X712Y1418D02*
X717Y1418D01*
X737Y1418D02*
X756Y1418D01*
X760Y1418D02*
X766Y1418D01*
X786Y1418D02*
X815Y1418D01*
X833Y1418D02*
X862Y1418D01*
X884Y1418D02*
X912Y1418D01*
X937Y1418D02*
X958Y1418D01*
X1038Y1418D02*
X1045Y1418D01*
X1123Y1418D02*
X1155Y1418D01*
X1915Y1418D02*
X1970Y1418D01*
X1984Y1418D02*
X2049Y1418D01*
X152Y1417D02*
X180Y1417D01*
X204Y1417D02*
X231Y1417D01*
X247Y1417D02*
X253Y1417D01*
X274Y1417D02*
X279Y1417D01*
X298Y1417D02*
X325Y1417D01*
X350Y1417D02*
X371Y1417D01*
X393Y1417D02*
X399Y1417D01*
X456Y1417D02*
X463Y1417D01*
X552Y1417D02*
X558Y1417D01*
X593Y1417D02*
X615Y1417D01*
X636Y1417D02*
X642Y1417D01*
X663Y1417D02*
X669Y1417D01*
X712Y1417D02*
X717Y1417D01*
X738Y1417D02*
X755Y1417D01*
X760Y1417D02*
X766Y1417D01*
X788Y1417D02*
X815Y1417D01*
X833Y1417D02*
X861Y1417D01*
X885Y1417D02*
X912Y1417D01*
X938Y1417D02*
X957Y1417D01*
X1039Y1417D02*
X1045Y1417D01*
X1123Y1417D02*
X1155Y1417D01*
X1915Y1417D02*
X1970Y1417D01*
X1984Y1417D02*
X2049Y1417D01*
X153Y1416D02*
X179Y1416D01*
X205Y1416D02*
X230Y1416D01*
X248Y1416D02*
X252Y1416D01*
X274Y1416D02*
X279Y1416D01*
X299Y1416D02*
X324Y1416D01*
X351Y1416D02*
X370Y1416D01*
X393Y1416D02*
X398Y1416D01*
X456Y1416D02*
X462Y1416D01*
X553Y1416D02*
X558Y1416D01*
X594Y1416D02*
X613Y1416D01*
X637Y1416D02*
X642Y1416D01*
X663Y1416D02*
X668Y1416D01*
X712Y1416D02*
X717Y1416D01*
X739Y1416D02*
X753Y1416D01*
X761Y1416D02*
X766Y1416D01*
X789Y1416D02*
X814Y1416D01*
X835Y1416D02*
X861Y1416D01*
X886Y1416D02*
X912Y1416D01*
X939Y1416D02*
X956Y1416D01*
X1039Y1416D02*
X1044Y1416D01*
X1123Y1416D02*
X1155Y1416D01*
X1915Y1416D02*
X1970Y1416D01*
X1984Y1416D02*
X2049Y1416D01*
X155Y1415D02*
X178Y1415D01*
X207Y1415D02*
X230Y1415D01*
X248Y1415D02*
X252Y1415D01*
X275Y1415D02*
X278Y1415D01*
X302Y1415D02*
X322Y1415D01*
X353Y1415D02*
X368Y1415D01*
X394Y1415D02*
X397Y1415D01*
X456Y1415D02*
X462Y1415D01*
X554Y1415D02*
X557Y1415D01*
X596Y1415D02*
X611Y1415D01*
X638Y1415D02*
X641Y1415D01*
X664Y1415D02*
X667Y1415D01*
X712Y1415D02*
X717Y1415D01*
X741Y1415D02*
X751Y1415D01*
X762Y1415D02*
X765Y1415D01*
X791Y1415D02*
X813Y1415D01*
X836Y1415D02*
X859Y1415D01*
X888Y1415D02*
X911Y1415D01*
X941Y1415D02*
X954Y1415D01*
X1040Y1415D02*
X1043Y1415D01*
X1124Y1415D02*
X1154Y1415D01*
X1915Y1415D02*
X1970Y1415D01*
X1984Y1415D02*
X2049Y1415D01*
X455Y1414D02*
X462Y1414D01*
X493Y1414D02*
X520Y1414D01*
X712Y1414D02*
X717Y1414D01*
X979Y1414D02*
X1007Y1414D01*
X1915Y1414D02*
X1970Y1414D01*
X1984Y1414D02*
X2049Y1414D01*
X455Y1413D02*
X461Y1413D01*
X491Y1413D02*
X522Y1413D01*
X712Y1413D02*
X717Y1413D01*
X978Y1413D02*
X1008Y1413D01*
X1915Y1413D02*
X1970Y1413D01*
X1984Y1413D02*
X2049Y1413D01*
X454Y1412D02*
X461Y1412D01*
X491Y1412D02*
X523Y1412D01*
X712Y1412D02*
X717Y1412D01*
X977Y1412D02*
X1009Y1412D01*
X1915Y1412D02*
X1970Y1412D01*
X1984Y1412D02*
X2049Y1412D01*
X454Y1411D02*
X460Y1411D01*
X490Y1411D02*
X523Y1411D01*
X711Y1411D02*
X717Y1411D01*
X977Y1411D02*
X1009Y1411D01*
X1915Y1411D02*
X1970Y1411D01*
X1984Y1411D02*
X2049Y1411D01*
X453Y1410D02*
X460Y1410D01*
X490Y1410D02*
X523Y1410D01*
X711Y1410D02*
X717Y1410D01*
X977Y1410D02*
X1009Y1410D01*
X1915Y1410D02*
X1970Y1410D01*
X1984Y1410D02*
X2049Y1410D01*
X453Y1409D02*
X459Y1409D01*
X491Y1409D02*
X522Y1409D01*
X710Y1409D02*
X717Y1409D01*
X977Y1409D02*
X1009Y1409D01*
X1915Y1409D02*
X1970Y1409D01*
X1984Y1409D02*
X2049Y1409D01*
X452Y1408D02*
X459Y1408D01*
X492Y1408D02*
X521Y1408D01*
X709Y1408D02*
X717Y1408D01*
X978Y1408D02*
X1008Y1408D01*
X1915Y1408D02*
X1970Y1408D01*
X1984Y1408D02*
X2049Y1408D01*
X452Y1407D02*
X459Y1407D01*
X707Y1407D02*
X716Y1407D01*
X1915Y1407D02*
X1970Y1407D01*
X1984Y1407D02*
X2049Y1407D01*
X443Y1406D02*
X458Y1406D01*
X690Y1406D02*
X715Y1406D01*
X1915Y1406D02*
X1970Y1406D01*
X1984Y1406D02*
X2049Y1406D01*
X442Y1405D02*
X458Y1405D01*
X689Y1405D02*
X714Y1405D01*
X1915Y1405D02*
X1970Y1405D01*
X1984Y1405D02*
X2049Y1405D01*
X442Y1404D02*
X457Y1404D01*
X688Y1404D02*
X713Y1404D01*
X1915Y1404D02*
X1970Y1404D01*
X1984Y1404D02*
X2049Y1404D01*
X442Y1403D02*
X457Y1403D01*
X688Y1403D02*
X712Y1403D01*
X1915Y1403D02*
X1970Y1403D01*
X1984Y1403D02*
X2049Y1403D01*
X442Y1402D02*
X456Y1402D01*
X688Y1402D02*
X711Y1402D01*
X1915Y1402D02*
X1970Y1402D01*
X1984Y1402D02*
X2049Y1402D01*
X443Y1401D02*
X456Y1401D01*
X689Y1401D02*
X709Y1401D01*
X1915Y1401D02*
X1970Y1401D01*
X1984Y1401D02*
X2049Y1401D01*
X445Y1400D02*
X454Y1400D01*
X691Y1400D02*
X706Y1400D01*
X1915Y1400D02*
X1970Y1400D01*
X1984Y1400D02*
X2049Y1400D01*
X1915Y1399D02*
X1970Y1399D01*
X1984Y1399D02*
X2049Y1399D01*
X1915Y1398D02*
X1970Y1398D01*
X1984Y1398D02*
X2049Y1398D01*
X1915Y1397D02*
X1970Y1397D01*
X1984Y1397D02*
X2049Y1397D01*
X1915Y1396D02*
X1970Y1396D01*
X1984Y1396D02*
X2049Y1396D01*
X1915Y1395D02*
X1969Y1395D01*
X1985Y1395D02*
X2049Y1395D01*
X1915Y1394D02*
X1967Y1394D01*
X1987Y1394D02*
X2049Y1394D01*
X1915Y1393D02*
X1966Y1393D01*
X1988Y1393D02*
X2049Y1393D01*
X1915Y1392D02*
X1965Y1392D01*
X1988Y1392D02*
X2049Y1392D01*
X1915Y1391D02*
X1965Y1391D01*
X1989Y1391D02*
X2049Y1391D01*
X1915Y1390D02*
X1964Y1390D01*
X1990Y1390D02*
X2049Y1390D01*
X1915Y1389D02*
X1964Y1389D01*
X1990Y1389D02*
X2049Y1389D01*
X1915Y1388D02*
X1963Y1388D01*
X1991Y1388D02*
X2049Y1388D01*
X1915Y1387D02*
X1963Y1387D01*
X1991Y1387D02*
X2049Y1387D01*
X1915Y1386D02*
X1963Y1386D01*
X1991Y1386D02*
X2049Y1386D01*
X1915Y1385D02*
X1962Y1385D01*
X1991Y1385D02*
X2049Y1385D01*
X1915Y1384D02*
X1962Y1384D01*
X1991Y1384D02*
X2049Y1384D01*
X1915Y1383D02*
X1962Y1383D01*
X1991Y1383D02*
X2049Y1383D01*
X1915Y1382D02*
X1963Y1382D01*
X1991Y1382D02*
X2049Y1382D01*
X1915Y1381D02*
X1963Y1381D01*
X1991Y1381D02*
X2049Y1381D01*
X1915Y1380D02*
X1963Y1380D01*
X1991Y1380D02*
X2049Y1380D01*
X1915Y1379D02*
X1963Y1379D01*
X1991Y1379D02*
X2049Y1379D01*
X1915Y1378D02*
X1964Y1378D01*
X1990Y1378D02*
X2049Y1378D01*
X1915Y1377D02*
X1964Y1377D01*
X1990Y1377D02*
X2049Y1377D01*
X1915Y1376D02*
X1965Y1376D01*
X1989Y1376D02*
X2049Y1376D01*
X1915Y1375D02*
X1965Y1375D01*
X1988Y1375D02*
X2049Y1375D01*
X1915Y1374D02*
X1966Y1374D01*
X1988Y1374D02*
X2049Y1374D01*
X1915Y1373D02*
X1967Y1373D01*
X1987Y1373D02*
X2049Y1373D01*
X1915Y1372D02*
X1968Y1372D01*
X1985Y1372D02*
X2049Y1372D01*
X1915Y1371D02*
X1970Y1371D01*
X1984Y1371D02*
X2049Y1371D01*
X1915Y1370D02*
X1973Y1370D01*
X1981Y1370D02*
X2049Y1370D01*
X1915Y1369D02*
X2049Y1369D01*
X1915Y1368D02*
X2049Y1368D01*
X1915Y1367D02*
X2049Y1367D01*
X1915Y1366D02*
X2049Y1366D01*
X1915Y1365D02*
X2049Y1365D01*
X1915Y1364D02*
X2049Y1364D01*
X1915Y1363D02*
X2049Y1363D01*
X1915Y1362D02*
X2049Y1362D01*
X1915Y1361D02*
X2049Y1361D01*
X1915Y1360D02*
X2049Y1360D01*
X1915Y1359D02*
X2049Y1359D01*
X132Y1020D02*
X135Y1020D01*
X159Y1020D02*
X163Y1020D01*
X182Y1020D02*
X185Y1020D01*
X231Y1020D02*
X240Y1020D01*
X260Y1020D02*
X263Y1020D01*
X282Y1020D02*
X311Y1020D01*
X339Y1020D02*
X357Y1020D01*
X385Y1020D02*
X411Y1020D01*
X433Y1020D02*
X462Y1020D01*
X131Y1019D02*
X136Y1019D01*
X159Y1019D02*
X164Y1019D01*
X181Y1019D02*
X186Y1019D01*
X231Y1019D02*
X240Y1019D01*
X259Y1019D02*
X264Y1019D01*
X282Y1019D02*
X312Y1019D01*
X339Y1019D02*
X357Y1019D01*
X384Y1019D02*
X413Y1019D01*
X432Y1019D02*
X463Y1019D01*
X131Y1018D02*
X136Y1018D01*
X158Y1018D02*
X164Y1018D01*
X181Y1018D02*
X187Y1018D01*
X231Y1018D02*
X240Y1018D01*
X259Y1018D02*
X264Y1018D01*
X281Y1018D02*
X313Y1018D01*
X338Y1018D02*
X358Y1018D01*
X383Y1018D02*
X414Y1018D01*
X432Y1018D02*
X464Y1018D01*
X131Y1017D02*
X137Y1017D01*
X158Y1017D02*
X164Y1017D01*
X181Y1017D02*
X187Y1017D01*
X231Y1017D02*
X241Y1017D01*
X258Y1017D02*
X265Y1017D01*
X281Y1017D02*
X314Y1017D01*
X338Y1017D02*
X358Y1017D01*
X382Y1017D02*
X414Y1017D01*
X432Y1017D02*
X465Y1017D01*
X131Y1016D02*
X137Y1016D01*
X158Y1016D02*
X164Y1016D01*
X181Y1016D02*
X187Y1016D01*
X231Y1016D02*
X241Y1016D01*
X258Y1016D02*
X265Y1016D01*
X281Y1016D02*
X314Y1016D01*
X338Y1016D02*
X358Y1016D01*
X382Y1016D02*
X415Y1016D01*
X432Y1016D02*
X465Y1016D01*
X131Y1015D02*
X137Y1015D01*
X158Y1015D02*
X164Y1015D01*
X181Y1015D02*
X187Y1015D01*
X231Y1015D02*
X242Y1015D01*
X258Y1015D02*
X265Y1015D01*
X282Y1015D02*
X315Y1015D01*
X338Y1015D02*
X358Y1015D01*
X382Y1015D02*
X415Y1015D01*
X433Y1015D02*
X465Y1015D01*
X131Y1014D02*
X137Y1014D01*
X158Y1014D02*
X164Y1014D01*
X181Y1014D02*
X187Y1014D01*
X231Y1014D02*
X242Y1014D01*
X258Y1014D02*
X265Y1014D01*
X284Y1014D02*
X315Y1014D01*
X338Y1014D02*
X358Y1014D01*
X382Y1014D02*
X415Y1014D01*
X435Y1014D02*
X465Y1014D01*
X131Y1013D02*
X137Y1013D01*
X158Y1013D02*
X164Y1013D01*
X181Y1013D02*
X187Y1013D01*
X231Y1013D02*
X243Y1013D01*
X258Y1013D02*
X265Y1013D01*
X309Y1013D02*
X315Y1013D01*
X338Y1013D02*
X344Y1013D01*
X352Y1013D02*
X358Y1013D01*
X382Y1013D02*
X388Y1013D01*
X409Y1013D02*
X415Y1013D01*
X459Y1013D02*
X465Y1013D01*
X1014Y1013D02*
X1015Y1013D01*
X1041Y1013D02*
X1042Y1013D01*
X1064Y1013D02*
X1065Y1013D01*
X1112Y1013D02*
X1120Y1013D01*
X1142Y1013D02*
X1143Y1013D01*
X1164Y1013D02*
X1190Y1013D01*
X1221Y1013D02*
X1236Y1013D01*
X1268Y1013D02*
X1290Y1013D01*
X1315Y1013D02*
X1341Y1013D01*
X131Y1012D02*
X137Y1012D01*
X158Y1012D02*
X164Y1012D01*
X181Y1012D02*
X187Y1012D01*
X231Y1012D02*
X243Y1012D01*
X258Y1012D02*
X265Y1012D01*
X309Y1012D02*
X315Y1012D01*
X338Y1012D02*
X344Y1012D01*
X352Y1012D02*
X358Y1012D01*
X382Y1012D02*
X388Y1012D01*
X409Y1012D02*
X415Y1012D01*
X459Y1012D02*
X465Y1012D01*
X1012Y1012D02*
X1016Y1012D01*
X1040Y1012D02*
X1044Y1012D01*
X1062Y1012D02*
X1067Y1012D01*
X1112Y1012D02*
X1120Y1012D01*
X1140Y1012D02*
X1144Y1012D01*
X1163Y1012D02*
X1192Y1012D01*
X1220Y1012D02*
X1238Y1012D01*
X1265Y1012D02*
X1293Y1012D01*
X1313Y1012D02*
X1343Y1012D01*
X131Y1011D02*
X137Y1011D01*
X158Y1011D02*
X164Y1011D01*
X181Y1011D02*
X187Y1011D01*
X231Y1011D02*
X243Y1011D01*
X258Y1011D02*
X265Y1011D01*
X309Y1011D02*
X315Y1011D01*
X338Y1011D02*
X344Y1011D01*
X352Y1011D02*
X358Y1011D01*
X382Y1011D02*
X388Y1011D01*
X409Y1011D02*
X415Y1011D01*
X459Y1011D02*
X465Y1011D01*
X1012Y1011D02*
X1017Y1011D01*
X1039Y1011D02*
X1045Y1011D01*
X1062Y1011D02*
X1067Y1011D01*
X1112Y1011D02*
X1121Y1011D01*
X1139Y1011D02*
X1145Y1011D01*
X1162Y1011D02*
X1193Y1011D01*
X1219Y1011D02*
X1238Y1011D01*
X1264Y1011D02*
X1294Y1011D01*
X1313Y1011D02*
X1344Y1011D01*
X131Y1010D02*
X137Y1010D01*
X158Y1010D02*
X164Y1010D01*
X181Y1010D02*
X187Y1010D01*
X231Y1010D02*
X244Y1010D01*
X258Y1010D02*
X265Y1010D01*
X309Y1010D02*
X315Y1010D01*
X338Y1010D02*
X344Y1010D01*
X352Y1010D02*
X358Y1010D01*
X382Y1010D02*
X388Y1010D01*
X409Y1010D02*
X415Y1010D01*
X459Y1010D02*
X465Y1010D01*
X1011Y1010D02*
X1017Y1010D01*
X1039Y1010D02*
X1045Y1010D01*
X1061Y1010D02*
X1067Y1010D01*
X1112Y1010D02*
X1121Y1010D01*
X1139Y1010D02*
X1145Y1010D01*
X1162Y1010D02*
X1194Y1010D01*
X1219Y1010D02*
X1239Y1010D01*
X1263Y1010D02*
X1295Y1010D01*
X1312Y1010D02*
X1345Y1010D01*
X131Y1009D02*
X137Y1009D01*
X158Y1009D02*
X164Y1009D01*
X181Y1009D02*
X187Y1009D01*
X231Y1009D02*
X244Y1009D01*
X258Y1009D02*
X265Y1009D01*
X309Y1009D02*
X315Y1009D01*
X338Y1009D02*
X344Y1009D01*
X352Y1009D02*
X358Y1009D01*
X382Y1009D02*
X388Y1009D01*
X409Y1009D02*
X415Y1009D01*
X459Y1009D02*
X465Y1009D01*
X1011Y1009D02*
X1017Y1009D01*
X1039Y1009D02*
X1045Y1009D01*
X1061Y1009D02*
X1067Y1009D01*
X1112Y1009D02*
X1122Y1009D01*
X1139Y1009D02*
X1145Y1009D01*
X1162Y1009D02*
X1195Y1009D01*
X1219Y1009D02*
X1239Y1009D01*
X1263Y1009D02*
X1295Y1009D01*
X1313Y1009D02*
X1345Y1009D01*
X131Y1008D02*
X137Y1008D01*
X158Y1008D02*
X164Y1008D01*
X181Y1008D02*
X187Y1008D01*
X231Y1008D02*
X245Y1008D01*
X258Y1008D02*
X265Y1008D01*
X309Y1008D02*
X315Y1008D01*
X338Y1008D02*
X344Y1008D01*
X352Y1008D02*
X358Y1008D01*
X382Y1008D02*
X388Y1008D01*
X409Y1008D02*
X415Y1008D01*
X459Y1008D02*
X465Y1008D01*
X1011Y1008D02*
X1017Y1008D01*
X1039Y1008D02*
X1045Y1008D01*
X1061Y1008D02*
X1067Y1008D01*
X1112Y1008D02*
X1122Y1008D01*
X1139Y1008D02*
X1145Y1008D01*
X1162Y1008D02*
X1195Y1008D01*
X1219Y1008D02*
X1239Y1008D01*
X1262Y1008D02*
X1296Y1008D01*
X1313Y1008D02*
X1346Y1008D01*
X131Y1007D02*
X137Y1007D01*
X158Y1007D02*
X164Y1007D01*
X181Y1007D02*
X187Y1007D01*
X231Y1007D02*
X237Y1007D01*
X239Y1007D02*
X245Y1007D01*
X258Y1007D02*
X265Y1007D01*
X309Y1007D02*
X315Y1007D01*
X338Y1007D02*
X344Y1007D01*
X352Y1007D02*
X358Y1007D01*
X382Y1007D02*
X388Y1007D01*
X409Y1007D02*
X415Y1007D01*
X459Y1007D02*
X465Y1007D01*
X1011Y1007D02*
X1017Y1007D01*
X1039Y1007D02*
X1045Y1007D01*
X1061Y1007D02*
X1067Y1007D01*
X1112Y1007D02*
X1123Y1007D01*
X1139Y1007D02*
X1145Y1007D01*
X1163Y1007D02*
X1195Y1007D01*
X1219Y1007D02*
X1239Y1007D01*
X1262Y1007D02*
X1296Y1007D01*
X1314Y1007D02*
X1346Y1007D01*
X131Y1006D02*
X137Y1006D01*
X158Y1006D02*
X164Y1006D01*
X181Y1006D02*
X187Y1006D01*
X231Y1006D02*
X237Y1006D01*
X239Y1006D02*
X246Y1006D01*
X258Y1006D02*
X265Y1006D01*
X309Y1006D02*
X315Y1006D01*
X338Y1006D02*
X344Y1006D01*
X352Y1006D02*
X358Y1006D01*
X382Y1006D02*
X388Y1006D01*
X409Y1006D02*
X415Y1006D01*
X459Y1006D02*
X465Y1006D01*
X1011Y1006D02*
X1017Y1006D01*
X1039Y1006D02*
X1045Y1006D01*
X1061Y1006D02*
X1067Y1006D01*
X1112Y1006D02*
X1123Y1006D01*
X1139Y1006D02*
X1145Y1006D01*
X1189Y1006D02*
X1195Y1006D01*
X1219Y1006D02*
X1225Y1006D01*
X1232Y1006D02*
X1239Y1006D01*
X1262Y1006D02*
X1268Y1006D01*
X1290Y1006D02*
X1296Y1006D01*
X1340Y1006D02*
X1346Y1006D01*
X131Y1005D02*
X137Y1005D01*
X158Y1005D02*
X164Y1005D01*
X181Y1005D02*
X187Y1005D01*
X231Y1005D02*
X237Y1005D01*
X239Y1005D02*
X246Y1005D01*
X258Y1005D02*
X265Y1005D01*
X309Y1005D02*
X315Y1005D01*
X338Y1005D02*
X344Y1005D01*
X352Y1005D02*
X358Y1005D01*
X382Y1005D02*
X388Y1005D01*
X409Y1005D02*
X415Y1005D01*
X459Y1005D02*
X465Y1005D01*
X1011Y1005D02*
X1017Y1005D01*
X1039Y1005D02*
X1045Y1005D01*
X1061Y1005D02*
X1067Y1005D01*
X1112Y1005D02*
X1123Y1005D01*
X1139Y1005D02*
X1145Y1005D01*
X1189Y1005D02*
X1195Y1005D01*
X1219Y1005D02*
X1225Y1005D01*
X1233Y1005D02*
X1239Y1005D01*
X1262Y1005D02*
X1268Y1005D01*
X1290Y1005D02*
X1296Y1005D01*
X1340Y1005D02*
X1346Y1005D01*
X131Y1004D02*
X137Y1004D01*
X158Y1004D02*
X164Y1004D01*
X181Y1004D02*
X187Y1004D01*
X231Y1004D02*
X237Y1004D01*
X240Y1004D02*
X247Y1004D01*
X258Y1004D02*
X265Y1004D01*
X309Y1004D02*
X315Y1004D01*
X338Y1004D02*
X344Y1004D01*
X352Y1004D02*
X358Y1004D01*
X382Y1004D02*
X388Y1004D01*
X409Y1004D02*
X415Y1004D01*
X459Y1004D02*
X465Y1004D01*
X1011Y1004D02*
X1017Y1004D01*
X1039Y1004D02*
X1045Y1004D01*
X1061Y1004D02*
X1067Y1004D01*
X1112Y1004D02*
X1124Y1004D01*
X1139Y1004D02*
X1145Y1004D01*
X1189Y1004D02*
X1195Y1004D01*
X1219Y1004D02*
X1225Y1004D01*
X1233Y1004D02*
X1239Y1004D01*
X1262Y1004D02*
X1268Y1004D01*
X1290Y1004D02*
X1296Y1004D01*
X1340Y1004D02*
X1346Y1004D01*
X131Y1003D02*
X137Y1003D01*
X158Y1003D02*
X164Y1003D01*
X181Y1003D02*
X187Y1003D01*
X231Y1003D02*
X237Y1003D01*
X240Y1003D02*
X247Y1003D01*
X258Y1003D02*
X265Y1003D01*
X309Y1003D02*
X315Y1003D01*
X338Y1003D02*
X344Y1003D01*
X352Y1003D02*
X358Y1003D01*
X382Y1003D02*
X388Y1003D01*
X409Y1003D02*
X415Y1003D01*
X459Y1003D02*
X465Y1003D01*
X1011Y1003D02*
X1017Y1003D01*
X1039Y1003D02*
X1045Y1003D01*
X1061Y1003D02*
X1067Y1003D01*
X1112Y1003D02*
X1124Y1003D01*
X1139Y1003D02*
X1145Y1003D01*
X1189Y1003D02*
X1195Y1003D01*
X1219Y1003D02*
X1225Y1003D01*
X1233Y1003D02*
X1239Y1003D01*
X1262Y1003D02*
X1268Y1003D01*
X1290Y1003D02*
X1296Y1003D01*
X1340Y1003D02*
X1346Y1003D01*
X131Y1002D02*
X137Y1002D01*
X158Y1002D02*
X164Y1002D01*
X181Y1002D02*
X187Y1002D01*
X231Y1002D02*
X237Y1002D01*
X241Y1002D02*
X247Y1002D01*
X258Y1002D02*
X265Y1002D01*
X309Y1002D02*
X315Y1002D01*
X338Y1002D02*
X344Y1002D01*
X352Y1002D02*
X358Y1002D01*
X382Y1002D02*
X388Y1002D01*
X409Y1002D02*
X415Y1002D01*
X459Y1002D02*
X465Y1002D01*
X1011Y1002D02*
X1017Y1002D01*
X1039Y1002D02*
X1045Y1002D01*
X1061Y1002D02*
X1067Y1002D01*
X1112Y1002D02*
X1125Y1002D01*
X1139Y1002D02*
X1145Y1002D01*
X1189Y1002D02*
X1195Y1002D01*
X1219Y1002D02*
X1225Y1002D01*
X1233Y1002D02*
X1239Y1002D01*
X1262Y1002D02*
X1268Y1002D01*
X1290Y1002D02*
X1296Y1002D01*
X1340Y1002D02*
X1346Y1002D01*
X131Y1001D02*
X137Y1001D01*
X158Y1001D02*
X164Y1001D01*
X181Y1001D02*
X187Y1001D01*
X231Y1001D02*
X237Y1001D01*
X241Y1001D02*
X248Y1001D01*
X258Y1001D02*
X265Y1001D01*
X309Y1001D02*
X315Y1001D01*
X338Y1001D02*
X344Y1001D01*
X352Y1001D02*
X358Y1001D01*
X382Y1001D02*
X388Y1001D01*
X409Y1001D02*
X415Y1001D01*
X459Y1001D02*
X465Y1001D01*
X1011Y1001D02*
X1017Y1001D01*
X1039Y1001D02*
X1045Y1001D01*
X1061Y1001D02*
X1067Y1001D01*
X1112Y1001D02*
X1125Y1001D01*
X1139Y1001D02*
X1145Y1001D01*
X1189Y1001D02*
X1195Y1001D01*
X1219Y1001D02*
X1225Y1001D01*
X1233Y1001D02*
X1239Y1001D01*
X1262Y1001D02*
X1268Y1001D01*
X1290Y1001D02*
X1296Y1001D01*
X1340Y1001D02*
X1346Y1001D01*
X131Y1000D02*
X137Y1000D01*
X158Y1000D02*
X164Y1000D01*
X181Y1000D02*
X187Y1000D01*
X231Y1000D02*
X237Y1000D01*
X242Y1000D02*
X248Y1000D01*
X258Y1000D02*
X265Y1000D01*
X309Y1000D02*
X315Y1000D01*
X338Y1000D02*
X344Y1000D01*
X352Y1000D02*
X358Y1000D01*
X382Y1000D02*
X388Y1000D01*
X409Y1000D02*
X415Y1000D01*
X459Y1000D02*
X465Y1000D01*
X1011Y1000D02*
X1017Y1000D01*
X1039Y1000D02*
X1045Y1000D01*
X1061Y1000D02*
X1067Y1000D01*
X1112Y1000D02*
X1126Y1000D01*
X1139Y1000D02*
X1145Y1000D01*
X1189Y1000D02*
X1195Y1000D01*
X1219Y1000D02*
X1225Y1000D01*
X1233Y1000D02*
X1239Y1000D01*
X1262Y1000D02*
X1268Y1000D01*
X1290Y1000D02*
X1296Y1000D01*
X1340Y1000D02*
X1346Y1000D01*
X131Y999D02*
X137Y999D01*
X158Y999D02*
X164Y999D01*
X181Y999D02*
X187Y999D01*
X231Y999D02*
X237Y999D01*
X242Y999D02*
X249Y999D01*
X258Y999D02*
X265Y999D01*
X309Y999D02*
X315Y999D01*
X338Y999D02*
X344Y999D01*
X352Y999D02*
X358Y999D01*
X382Y999D02*
X388Y999D01*
X409Y999D02*
X415Y999D01*
X459Y999D02*
X465Y999D01*
X1011Y999D02*
X1017Y999D01*
X1039Y999D02*
X1045Y999D01*
X1061Y999D02*
X1067Y999D01*
X1112Y999D02*
X1126Y999D01*
X1139Y999D02*
X1145Y999D01*
X1189Y999D02*
X1195Y999D01*
X1219Y999D02*
X1225Y999D01*
X1233Y999D02*
X1239Y999D01*
X1262Y999D02*
X1268Y999D01*
X1290Y999D02*
X1296Y999D01*
X1340Y999D02*
X1346Y999D01*
X131Y998D02*
X137Y998D01*
X158Y998D02*
X164Y998D01*
X181Y998D02*
X187Y998D01*
X231Y998D02*
X237Y998D01*
X242Y998D02*
X249Y998D01*
X258Y998D02*
X265Y998D01*
X309Y998D02*
X315Y998D01*
X338Y998D02*
X344Y998D01*
X352Y998D02*
X358Y998D01*
X382Y998D02*
X388Y998D01*
X409Y998D02*
X415Y998D01*
X458Y998D02*
X465Y998D01*
X1011Y998D02*
X1017Y998D01*
X1039Y998D02*
X1045Y998D01*
X1061Y998D02*
X1067Y998D01*
X1112Y998D02*
X1118Y998D01*
X1120Y998D02*
X1127Y998D01*
X1139Y998D02*
X1145Y998D01*
X1189Y998D02*
X1195Y998D01*
X1219Y998D02*
X1225Y998D01*
X1233Y998D02*
X1239Y998D01*
X1262Y998D02*
X1268Y998D01*
X1290Y998D02*
X1296Y998D01*
X1340Y998D02*
X1346Y998D01*
X131Y997D02*
X137Y997D01*
X158Y997D02*
X164Y997D01*
X181Y997D02*
X187Y997D01*
X231Y997D02*
X237Y997D01*
X243Y997D02*
X250Y997D01*
X258Y997D02*
X265Y997D01*
X286Y997D02*
X315Y997D01*
X336Y997D02*
X360Y997D01*
X382Y997D02*
X388Y997D01*
X409Y997D02*
X415Y997D01*
X441Y997D02*
X465Y997D01*
X1011Y997D02*
X1017Y997D01*
X1039Y997D02*
X1045Y997D01*
X1061Y997D02*
X1067Y997D01*
X1112Y997D02*
X1118Y997D01*
X1120Y997D02*
X1127Y997D01*
X1139Y997D02*
X1145Y997D01*
X1189Y997D02*
X1195Y997D01*
X1219Y997D02*
X1225Y997D01*
X1233Y997D02*
X1239Y997D01*
X1262Y997D02*
X1268Y997D01*
X1290Y997D02*
X1296Y997D01*
X1340Y997D02*
X1346Y997D01*
X131Y996D02*
X137Y996D01*
X158Y996D02*
X164Y996D01*
X181Y996D02*
X187Y996D01*
X231Y996D02*
X237Y996D01*
X243Y996D02*
X250Y996D01*
X258Y996D02*
X265Y996D01*
X284Y996D02*
X315Y996D01*
X334Y996D02*
X362Y996D01*
X382Y996D02*
X388Y996D01*
X409Y996D02*
X415Y996D01*
X439Y996D02*
X464Y996D01*
X1011Y996D02*
X1017Y996D01*
X1039Y996D02*
X1045Y996D01*
X1061Y996D02*
X1067Y996D01*
X1112Y996D02*
X1118Y996D01*
X1121Y996D02*
X1127Y996D01*
X1139Y996D02*
X1145Y996D01*
X1189Y996D02*
X1195Y996D01*
X1219Y996D02*
X1225Y996D01*
X1233Y996D02*
X1239Y996D01*
X1262Y996D02*
X1268Y996D01*
X1290Y996D02*
X1296Y996D01*
X1340Y996D02*
X1346Y996D01*
X131Y995D02*
X137Y995D01*
X158Y995D02*
X164Y995D01*
X181Y995D02*
X187Y995D01*
X231Y995D02*
X237Y995D01*
X244Y995D02*
X251Y995D01*
X258Y995D02*
X265Y995D01*
X283Y995D02*
X314Y995D01*
X333Y995D02*
X363Y995D01*
X382Y995D02*
X388Y995D01*
X409Y995D02*
X415Y995D01*
X439Y995D02*
X463Y995D01*
X1011Y995D02*
X1017Y995D01*
X1039Y995D02*
X1045Y995D01*
X1061Y995D02*
X1067Y995D01*
X1112Y995D02*
X1118Y995D01*
X1121Y995D02*
X1128Y995D01*
X1139Y995D02*
X1145Y995D01*
X1189Y995D02*
X1195Y995D01*
X1219Y995D02*
X1225Y995D01*
X1233Y995D02*
X1239Y995D01*
X1262Y995D02*
X1268Y995D01*
X1290Y995D02*
X1296Y995D01*
X1340Y995D02*
X1346Y995D01*
X131Y994D02*
X137Y994D01*
X158Y994D02*
X164Y994D01*
X181Y994D02*
X187Y994D01*
X231Y994D02*
X237Y994D01*
X244Y994D02*
X251Y994D01*
X258Y994D02*
X265Y994D01*
X282Y994D02*
X314Y994D01*
X332Y994D02*
X364Y994D01*
X382Y994D02*
X388Y994D01*
X409Y994D02*
X415Y994D01*
X439Y994D02*
X463Y994D01*
X1011Y994D02*
X1017Y994D01*
X1039Y994D02*
X1045Y994D01*
X1061Y994D02*
X1067Y994D01*
X1112Y994D02*
X1118Y994D01*
X1122Y994D02*
X1128Y994D01*
X1139Y994D02*
X1145Y994D01*
X1189Y994D02*
X1195Y994D01*
X1219Y994D02*
X1225Y994D01*
X1233Y994D02*
X1239Y994D01*
X1262Y994D02*
X1268Y994D01*
X1290Y994D02*
X1296Y994D01*
X1340Y994D02*
X1346Y994D01*
X131Y993D02*
X137Y993D01*
X158Y993D02*
X164Y993D01*
X181Y993D02*
X187Y993D01*
X231Y993D02*
X237Y993D01*
X245Y993D02*
X251Y993D01*
X258Y993D02*
X265Y993D01*
X282Y993D02*
X313Y993D01*
X332Y993D02*
X364Y993D01*
X382Y993D02*
X388Y993D01*
X409Y993D02*
X415Y993D01*
X439Y993D02*
X463Y993D01*
X1011Y993D02*
X1017Y993D01*
X1039Y993D02*
X1045Y993D01*
X1061Y993D02*
X1067Y993D01*
X1112Y993D02*
X1118Y993D01*
X1122Y993D02*
X1129Y993D01*
X1139Y993D02*
X1145Y993D01*
X1189Y993D02*
X1195Y993D01*
X1219Y993D02*
X1225Y993D01*
X1233Y993D02*
X1239Y993D01*
X1262Y993D02*
X1268Y993D01*
X1290Y993D02*
X1296Y993D01*
X1340Y993D02*
X1346Y993D01*
X131Y992D02*
X137Y992D01*
X158Y992D02*
X164Y992D01*
X181Y992D02*
X187Y992D01*
X231Y992D02*
X237Y992D01*
X245Y992D02*
X252Y992D01*
X258Y992D02*
X265Y992D01*
X281Y992D02*
X312Y992D01*
X332Y992D02*
X365Y992D01*
X382Y992D02*
X388Y992D01*
X409Y992D02*
X415Y992D01*
X439Y992D02*
X464Y992D01*
X1011Y992D02*
X1017Y992D01*
X1039Y992D02*
X1045Y992D01*
X1061Y992D02*
X1067Y992D01*
X1112Y992D02*
X1118Y992D01*
X1122Y992D02*
X1129Y992D01*
X1139Y992D02*
X1145Y992D01*
X1189Y992D02*
X1195Y992D01*
X1219Y992D02*
X1225Y992D01*
X1233Y992D02*
X1239Y992D01*
X1262Y992D02*
X1268Y992D01*
X1290Y992D02*
X1296Y992D01*
X1340Y992D02*
X1346Y992D01*
X131Y991D02*
X137Y991D01*
X158Y991D02*
X164Y991D01*
X181Y991D02*
X187Y991D01*
X231Y991D02*
X237Y991D01*
X246Y991D02*
X252Y991D01*
X258Y991D02*
X265Y991D01*
X281Y991D02*
X311Y991D01*
X331Y991D02*
X365Y991D01*
X382Y991D02*
X388Y991D01*
X409Y991D02*
X415Y991D01*
X440Y991D02*
X464Y991D01*
X1011Y991D02*
X1017Y991D01*
X1039Y991D02*
X1045Y991D01*
X1061Y991D02*
X1067Y991D01*
X1112Y991D02*
X1118Y991D01*
X1123Y991D02*
X1130Y991D01*
X1139Y991D02*
X1145Y991D01*
X1189Y991D02*
X1195Y991D01*
X1219Y991D02*
X1225Y991D01*
X1233Y991D02*
X1239Y991D01*
X1262Y991D02*
X1268Y991D01*
X1290Y991D02*
X1296Y991D01*
X1339Y991D02*
X1346Y991D01*
X131Y990D02*
X137Y990D01*
X158Y990D02*
X164Y990D01*
X181Y990D02*
X187Y990D01*
X231Y990D02*
X237Y990D01*
X246Y990D02*
X253Y990D01*
X258Y990D02*
X265Y990D01*
X281Y990D02*
X287Y990D01*
X331Y990D02*
X337Y990D01*
X359Y990D02*
X365Y990D01*
X382Y990D02*
X388Y990D01*
X409Y990D02*
X415Y990D01*
X457Y990D02*
X465Y990D01*
X1011Y990D02*
X1017Y990D01*
X1039Y990D02*
X1045Y990D01*
X1061Y990D02*
X1067Y990D01*
X1112Y990D02*
X1118Y990D01*
X1123Y990D02*
X1130Y990D01*
X1139Y990D02*
X1145Y990D01*
X1189Y990D02*
X1195Y990D01*
X1219Y990D02*
X1225Y990D01*
X1233Y990D02*
X1239Y990D01*
X1262Y990D02*
X1268Y990D01*
X1290Y990D02*
X1296Y990D01*
X1338Y990D02*
X1346Y990D01*
X131Y989D02*
X137Y989D01*
X158Y989D02*
X164Y989D01*
X181Y989D02*
X187Y989D01*
X231Y989D02*
X237Y989D01*
X246Y989D02*
X253Y989D01*
X258Y989D02*
X265Y989D01*
X281Y989D02*
X287Y989D01*
X331Y989D02*
X337Y989D01*
X359Y989D02*
X365Y989D01*
X382Y989D02*
X388Y989D01*
X409Y989D02*
X415Y989D01*
X458Y989D02*
X465Y989D01*
X1011Y989D02*
X1017Y989D01*
X1039Y989D02*
X1045Y989D01*
X1061Y989D02*
X1067Y989D01*
X1112Y989D02*
X1118Y989D01*
X1124Y989D02*
X1130Y989D01*
X1139Y989D02*
X1145Y989D01*
X1166Y989D02*
X1195Y989D01*
X1216Y989D02*
X1241Y989D01*
X1262Y989D02*
X1268Y989D01*
X1290Y989D02*
X1296Y989D01*
X1321Y989D02*
X1345Y989D01*
X131Y988D02*
X137Y988D01*
X158Y988D02*
X164Y988D01*
X181Y988D02*
X187Y988D01*
X231Y988D02*
X237Y988D01*
X247Y988D02*
X254Y988D01*
X258Y988D02*
X265Y988D01*
X281Y988D02*
X287Y988D01*
X331Y988D02*
X337Y988D01*
X359Y988D02*
X365Y988D01*
X382Y988D02*
X388Y988D01*
X409Y988D02*
X415Y988D01*
X459Y988D02*
X465Y988D01*
X1011Y988D02*
X1017Y988D01*
X1039Y988D02*
X1045Y988D01*
X1061Y988D02*
X1067Y988D01*
X1112Y988D02*
X1118Y988D01*
X1124Y988D02*
X1131Y988D01*
X1139Y988D02*
X1145Y988D01*
X1164Y988D02*
X1195Y988D01*
X1215Y988D02*
X1243Y988D01*
X1262Y988D02*
X1268Y988D01*
X1290Y988D02*
X1296Y988D01*
X1320Y988D02*
X1345Y988D01*
X131Y987D02*
X137Y987D01*
X158Y987D02*
X164Y987D01*
X181Y987D02*
X187Y987D01*
X231Y987D02*
X237Y987D01*
X247Y987D02*
X254Y987D01*
X258Y987D02*
X265Y987D01*
X281Y987D02*
X287Y987D01*
X331Y987D02*
X337Y987D01*
X359Y987D02*
X365Y987D01*
X382Y987D02*
X388Y987D01*
X409Y987D02*
X415Y987D01*
X459Y987D02*
X465Y987D01*
X1011Y987D02*
X1017Y987D01*
X1039Y987D02*
X1045Y987D01*
X1061Y987D02*
X1067Y987D01*
X1112Y987D02*
X1118Y987D01*
X1125Y987D02*
X1131Y987D01*
X1139Y987D02*
X1145Y987D01*
X1163Y987D02*
X1195Y987D01*
X1214Y987D02*
X1244Y987D01*
X1262Y987D02*
X1268Y987D01*
X1290Y987D02*
X1296Y987D01*
X1319Y987D02*
X1344Y987D01*
X131Y986D02*
X137Y986D01*
X158Y986D02*
X164Y986D01*
X181Y986D02*
X187Y986D01*
X231Y986D02*
X237Y986D01*
X248Y986D02*
X254Y986D01*
X258Y986D02*
X265Y986D01*
X281Y986D02*
X287Y986D01*
X331Y986D02*
X337Y986D01*
X359Y986D02*
X365Y986D01*
X382Y986D02*
X388Y986D01*
X409Y986D02*
X415Y986D01*
X459Y986D02*
X465Y986D01*
X1011Y986D02*
X1017Y986D01*
X1039Y986D02*
X1045Y986D01*
X1061Y986D02*
X1067Y986D01*
X1112Y986D02*
X1118Y986D01*
X1125Y986D02*
X1132Y986D01*
X1139Y986D02*
X1145Y986D01*
X1163Y986D02*
X1194Y986D01*
X1213Y986D02*
X1245Y986D01*
X1262Y986D02*
X1268Y986D01*
X1290Y986D02*
X1296Y986D01*
X1319Y986D02*
X1343Y986D01*
X131Y985D02*
X137Y985D01*
X158Y985D02*
X164Y985D01*
X181Y985D02*
X187Y985D01*
X231Y985D02*
X237Y985D01*
X248Y985D02*
X255Y985D01*
X258Y985D02*
X265Y985D01*
X281Y985D02*
X287Y985D01*
X331Y985D02*
X337Y985D01*
X359Y985D02*
X365Y985D01*
X382Y985D02*
X388Y985D01*
X409Y985D02*
X415Y985D01*
X459Y985D02*
X465Y985D01*
X1011Y985D02*
X1017Y985D01*
X1039Y985D02*
X1045Y985D01*
X1061Y985D02*
X1067Y985D01*
X1112Y985D02*
X1118Y985D01*
X1126Y985D02*
X1132Y985D01*
X1139Y985D02*
X1145Y985D01*
X1162Y985D02*
X1194Y985D01*
X1212Y985D02*
X1245Y985D01*
X1262Y985D02*
X1268Y985D01*
X1290Y985D02*
X1296Y985D01*
X1320Y985D02*
X1344Y985D01*
X131Y984D02*
X137Y984D01*
X158Y984D02*
X164Y984D01*
X181Y984D02*
X187Y984D01*
X231Y984D02*
X237Y984D01*
X249Y984D02*
X255Y984D01*
X258Y984D02*
X265Y984D01*
X281Y984D02*
X287Y984D01*
X331Y984D02*
X337Y984D01*
X359Y984D02*
X365Y984D01*
X382Y984D02*
X388Y984D01*
X409Y984D02*
X415Y984D01*
X459Y984D02*
X465Y984D01*
X1011Y984D02*
X1017Y984D01*
X1039Y984D02*
X1045Y984D01*
X1061Y984D02*
X1067Y984D01*
X1112Y984D02*
X1118Y984D01*
X1126Y984D02*
X1133Y984D01*
X1139Y984D02*
X1145Y984D01*
X1162Y984D02*
X1192Y984D01*
X1212Y984D02*
X1245Y984D01*
X1262Y984D02*
X1268Y984D01*
X1290Y984D02*
X1296Y984D01*
X1320Y984D02*
X1345Y984D01*
X131Y983D02*
X137Y983D01*
X158Y983D02*
X164Y983D01*
X181Y983D02*
X187Y983D01*
X231Y983D02*
X237Y983D01*
X249Y983D02*
X256Y983D01*
X258Y983D02*
X265Y983D01*
X281Y983D02*
X287Y983D01*
X331Y983D02*
X337Y983D01*
X359Y983D02*
X365Y983D01*
X382Y983D02*
X388Y983D01*
X409Y983D02*
X415Y983D01*
X459Y983D02*
X465Y983D01*
X1011Y983D02*
X1017Y983D01*
X1039Y983D02*
X1045Y983D01*
X1061Y983D02*
X1067Y983D01*
X1112Y983D02*
X1118Y983D01*
X1126Y983D02*
X1133Y983D01*
X1139Y983D02*
X1145Y983D01*
X1162Y983D02*
X1190Y983D01*
X1212Y983D02*
X1246Y983D01*
X1262Y983D02*
X1268Y983D01*
X1290Y983D02*
X1296Y983D01*
X1321Y983D02*
X1345Y983D01*
X131Y982D02*
X137Y982D01*
X158Y982D02*
X164Y982D01*
X181Y982D02*
X187Y982D01*
X231Y982D02*
X237Y982D01*
X249Y982D02*
X256Y982D01*
X258Y982D02*
X265Y982D01*
X281Y982D02*
X287Y982D01*
X331Y982D02*
X337Y982D01*
X359Y982D02*
X365Y982D01*
X382Y982D02*
X388Y982D01*
X409Y982D02*
X415Y982D01*
X459Y982D02*
X465Y982D01*
X1011Y982D02*
X1017Y982D01*
X1039Y982D02*
X1045Y982D01*
X1061Y982D02*
X1067Y982D01*
X1112Y982D02*
X1118Y982D01*
X1127Y982D02*
X1134Y982D01*
X1139Y982D02*
X1145Y982D01*
X1162Y982D02*
X1168Y982D01*
X1212Y982D02*
X1218Y982D01*
X1240Y982D02*
X1246Y982D01*
X1262Y982D02*
X1268Y982D01*
X1290Y982D02*
X1296Y982D01*
X1338Y982D02*
X1346Y982D01*
X131Y981D02*
X137Y981D01*
X158Y981D02*
X164Y981D01*
X181Y981D02*
X187Y981D01*
X231Y981D02*
X237Y981D01*
X250Y981D02*
X265Y981D01*
X281Y981D02*
X287Y981D01*
X331Y981D02*
X337Y981D01*
X359Y981D02*
X365Y981D01*
X382Y981D02*
X388Y981D01*
X409Y981D02*
X415Y981D01*
X459Y981D02*
X465Y981D01*
X1011Y981D02*
X1017Y981D01*
X1039Y981D02*
X1045Y981D01*
X1061Y981D02*
X1067Y981D01*
X1112Y981D02*
X1118Y981D01*
X1127Y981D02*
X1134Y981D01*
X1139Y981D02*
X1145Y981D01*
X1162Y981D02*
X1168Y981D01*
X1212Y981D02*
X1218Y981D01*
X1240Y981D02*
X1246Y981D01*
X1262Y981D02*
X1268Y981D01*
X1290Y981D02*
X1296Y981D01*
X1339Y981D02*
X1346Y981D01*
X131Y980D02*
X137Y980D01*
X158Y980D02*
X164Y980D01*
X181Y980D02*
X187Y980D01*
X231Y980D02*
X237Y980D01*
X250Y980D02*
X265Y980D01*
X281Y980D02*
X287Y980D01*
X331Y980D02*
X337Y980D01*
X359Y980D02*
X365Y980D01*
X382Y980D02*
X388Y980D01*
X409Y980D02*
X415Y980D01*
X459Y980D02*
X465Y980D01*
X1011Y980D02*
X1017Y980D01*
X1039Y980D02*
X1045Y980D01*
X1061Y980D02*
X1067Y980D01*
X1112Y980D02*
X1118Y980D01*
X1128Y980D02*
X1134Y980D01*
X1139Y980D02*
X1145Y980D01*
X1162Y980D02*
X1168Y980D01*
X1212Y980D02*
X1218Y980D01*
X1240Y980D02*
X1246Y980D01*
X1262Y980D02*
X1268Y980D01*
X1290Y980D02*
X1296Y980D01*
X1340Y980D02*
X1346Y980D01*
X131Y979D02*
X137Y979D01*
X158Y979D02*
X164Y979D01*
X181Y979D02*
X187Y979D01*
X231Y979D02*
X237Y979D01*
X251Y979D02*
X265Y979D01*
X281Y979D02*
X287Y979D01*
X331Y979D02*
X337Y979D01*
X359Y979D02*
X365Y979D01*
X382Y979D02*
X388Y979D01*
X409Y979D02*
X415Y979D01*
X459Y979D02*
X465Y979D01*
X1011Y979D02*
X1017Y979D01*
X1039Y979D02*
X1045Y979D01*
X1061Y979D02*
X1067Y979D01*
X1112Y979D02*
X1118Y979D01*
X1128Y979D02*
X1135Y979D01*
X1139Y979D02*
X1145Y979D01*
X1162Y979D02*
X1168Y979D01*
X1212Y979D02*
X1218Y979D01*
X1240Y979D02*
X1246Y979D01*
X1262Y979D02*
X1268Y979D01*
X1290Y979D02*
X1296Y979D01*
X1340Y979D02*
X1346Y979D01*
X131Y978D02*
X137Y978D01*
X158Y978D02*
X164Y978D01*
X181Y978D02*
X187Y978D01*
X231Y978D02*
X237Y978D01*
X251Y978D02*
X265Y978D01*
X281Y978D02*
X287Y978D01*
X331Y978D02*
X337Y978D01*
X359Y978D02*
X365Y978D01*
X382Y978D02*
X388Y978D01*
X409Y978D02*
X415Y978D01*
X459Y978D02*
X465Y978D01*
X1011Y978D02*
X1017Y978D01*
X1039Y978D02*
X1045Y978D01*
X1061Y978D02*
X1067Y978D01*
X1112Y978D02*
X1118Y978D01*
X1129Y978D02*
X1135Y978D01*
X1139Y978D02*
X1145Y978D01*
X1162Y978D02*
X1168Y978D01*
X1212Y978D02*
X1218Y978D01*
X1240Y978D02*
X1246Y978D01*
X1262Y978D02*
X1268Y978D01*
X1290Y978D02*
X1296Y978D01*
X1340Y978D02*
X1346Y978D01*
X131Y977D02*
X137Y977D01*
X158Y977D02*
X164Y977D01*
X181Y977D02*
X187Y977D01*
X231Y977D02*
X237Y977D01*
X252Y977D02*
X265Y977D01*
X281Y977D02*
X287Y977D01*
X331Y977D02*
X337Y977D01*
X359Y977D02*
X365Y977D01*
X382Y977D02*
X388Y977D01*
X409Y977D02*
X415Y977D01*
X459Y977D02*
X465Y977D01*
X1011Y977D02*
X1017Y977D01*
X1039Y977D02*
X1045Y977D01*
X1061Y977D02*
X1067Y977D01*
X1112Y977D02*
X1118Y977D01*
X1129Y977D02*
X1136Y977D01*
X1139Y977D02*
X1145Y977D01*
X1162Y977D02*
X1168Y977D01*
X1212Y977D02*
X1218Y977D01*
X1240Y977D02*
X1246Y977D01*
X1262Y977D02*
X1268Y977D01*
X1290Y977D02*
X1296Y977D01*
X1340Y977D02*
X1346Y977D01*
X131Y976D02*
X137Y976D01*
X158Y976D02*
X164Y976D01*
X181Y976D02*
X187Y976D01*
X231Y976D02*
X237Y976D01*
X252Y976D02*
X265Y976D01*
X281Y976D02*
X287Y976D01*
X331Y976D02*
X337Y976D01*
X359Y976D02*
X365Y976D01*
X382Y976D02*
X388Y976D01*
X409Y976D02*
X415Y976D01*
X459Y976D02*
X465Y976D01*
X1011Y976D02*
X1017Y976D01*
X1039Y976D02*
X1045Y976D01*
X1061Y976D02*
X1067Y976D01*
X1112Y976D02*
X1118Y976D01*
X1129Y976D02*
X1136Y976D01*
X1139Y976D02*
X1145Y976D01*
X1162Y976D02*
X1168Y976D01*
X1212Y976D02*
X1218Y976D01*
X1240Y976D02*
X1246Y976D01*
X1262Y976D02*
X1268Y976D01*
X1290Y976D02*
X1296Y976D01*
X1340Y976D02*
X1346Y976D01*
X131Y975D02*
X137Y975D01*
X157Y975D02*
X164Y975D01*
X181Y975D02*
X187Y975D01*
X231Y975D02*
X237Y975D01*
X253Y975D02*
X265Y975D01*
X281Y975D02*
X287Y975D01*
X331Y975D02*
X337Y975D01*
X359Y975D02*
X365Y975D01*
X382Y975D02*
X388Y975D01*
X409Y975D02*
X415Y975D01*
X459Y975D02*
X465Y975D01*
X1011Y975D02*
X1017Y975D01*
X1039Y975D02*
X1045Y975D01*
X1061Y975D02*
X1067Y975D01*
X1112Y975D02*
X1118Y975D01*
X1130Y975D02*
X1137Y975D01*
X1139Y975D02*
X1145Y975D01*
X1162Y975D02*
X1168Y975D01*
X1212Y975D02*
X1218Y975D01*
X1240Y975D02*
X1246Y975D01*
X1262Y975D02*
X1268Y975D01*
X1290Y975D02*
X1296Y975D01*
X1340Y975D02*
X1346Y975D01*
X131Y974D02*
X139Y974D01*
X156Y974D02*
X164Y974D01*
X181Y974D02*
X187Y974D01*
X231Y974D02*
X237Y974D01*
X253Y974D02*
X265Y974D01*
X281Y974D02*
X287Y974D01*
X331Y974D02*
X337Y974D01*
X359Y974D02*
X365Y974D01*
X382Y974D02*
X388Y974D01*
X409Y974D02*
X415Y974D01*
X459Y974D02*
X465Y974D01*
X1011Y974D02*
X1017Y974D01*
X1039Y974D02*
X1045Y974D01*
X1061Y974D02*
X1067Y974D01*
X1112Y974D02*
X1118Y974D01*
X1130Y974D02*
X1137Y974D01*
X1139Y974D02*
X1145Y974D01*
X1162Y974D02*
X1168Y974D01*
X1212Y974D02*
X1218Y974D01*
X1240Y974D02*
X1246Y974D01*
X1262Y974D02*
X1268Y974D01*
X1290Y974D02*
X1296Y974D01*
X1340Y974D02*
X1346Y974D01*
X131Y973D02*
X163Y973D01*
X181Y973D02*
X213Y973D01*
X231Y973D02*
X237Y973D01*
X253Y973D02*
X265Y973D01*
X281Y973D02*
X313Y973D01*
X331Y973D02*
X365Y973D01*
X382Y973D02*
X415Y973D01*
X433Y973D02*
X465Y973D01*
X1011Y973D02*
X1017Y973D01*
X1039Y973D02*
X1045Y973D01*
X1061Y973D02*
X1067Y973D01*
X1112Y973D02*
X1118Y973D01*
X1131Y973D02*
X1145Y973D01*
X1162Y973D02*
X1168Y973D01*
X1212Y973D02*
X1218Y973D01*
X1240Y973D02*
X1246Y973D01*
X1262Y973D02*
X1268Y973D01*
X1290Y973D02*
X1296Y973D01*
X1340Y973D02*
X1346Y973D01*
X132Y972D02*
X163Y972D01*
X181Y972D02*
X214Y972D01*
X231Y972D02*
X237Y972D01*
X254Y972D02*
X265Y972D01*
X281Y972D02*
X314Y972D01*
X332Y972D02*
X365Y972D01*
X382Y972D02*
X415Y972D01*
X432Y972D02*
X465Y972D01*
X1011Y972D02*
X1017Y972D01*
X1039Y972D02*
X1045Y972D01*
X1061Y972D02*
X1067Y972D01*
X1112Y972D02*
X1118Y972D01*
X1131Y972D02*
X1145Y972D01*
X1162Y972D02*
X1168Y972D01*
X1212Y972D02*
X1218Y972D01*
X1240Y972D02*
X1246Y972D01*
X1262Y972D02*
X1268Y972D01*
X1290Y972D02*
X1296Y972D01*
X1340Y972D02*
X1346Y972D01*
X133Y971D02*
X162Y971D01*
X181Y971D02*
X214Y971D01*
X231Y971D02*
X237Y971D01*
X254Y971D02*
X265Y971D01*
X281Y971D02*
X315Y971D01*
X332Y971D02*
X364Y971D01*
X382Y971D02*
X414Y971D01*
X432Y971D02*
X465Y971D01*
X1011Y971D02*
X1017Y971D01*
X1039Y971D02*
X1045Y971D01*
X1061Y971D02*
X1067Y971D01*
X1112Y971D02*
X1118Y971D01*
X1132Y971D02*
X1145Y971D01*
X1162Y971D02*
X1168Y971D01*
X1212Y971D02*
X1218Y971D01*
X1240Y971D02*
X1246Y971D01*
X1262Y971D02*
X1268Y971D01*
X1290Y971D02*
X1296Y971D01*
X1340Y971D02*
X1346Y971D01*
X133Y970D02*
X161Y970D01*
X181Y970D02*
X214Y970D01*
X231Y970D02*
X237Y970D01*
X255Y970D02*
X265Y970D01*
X281Y970D02*
X315Y970D01*
X332Y970D02*
X364Y970D01*
X383Y970D02*
X414Y970D01*
X432Y970D02*
X464Y970D01*
X1011Y970D02*
X1017Y970D01*
X1039Y970D02*
X1045Y970D01*
X1061Y970D02*
X1067Y970D01*
X1112Y970D02*
X1118Y970D01*
X1132Y970D02*
X1145Y970D01*
X1162Y970D02*
X1168Y970D01*
X1212Y970D02*
X1218Y970D01*
X1240Y970D02*
X1246Y970D01*
X1262Y970D02*
X1268Y970D01*
X1290Y970D02*
X1296Y970D01*
X1340Y970D02*
X1346Y970D01*
X135Y969D02*
X160Y969D01*
X181Y969D02*
X214Y969D01*
X231Y969D02*
X237Y969D01*
X255Y969D02*
X265Y969D01*
X281Y969D02*
X314Y969D01*
X333Y969D02*
X363Y969D01*
X383Y969D02*
X413Y969D01*
X432Y969D02*
X463Y969D01*
X1011Y969D02*
X1017Y969D01*
X1039Y969D02*
X1045Y969D01*
X1061Y969D02*
X1067Y969D01*
X1112Y969D02*
X1118Y969D01*
X1133Y969D02*
X1145Y969D01*
X1162Y969D02*
X1168Y969D01*
X1212Y969D02*
X1218Y969D01*
X1240Y969D02*
X1246Y969D01*
X1262Y969D02*
X1268Y969D01*
X1290Y969D02*
X1296Y969D01*
X1340Y969D02*
X1346Y969D01*
X136Y968D02*
X158Y968D01*
X181Y968D02*
X213Y968D01*
X232Y968D02*
X236Y968D01*
X256Y968D02*
X265Y968D01*
X281Y968D02*
X314Y968D01*
X334Y968D02*
X362Y968D01*
X385Y968D02*
X412Y968D01*
X433Y968D02*
X462Y968D01*
X1011Y968D02*
X1018Y968D01*
X1038Y968D02*
X1045Y968D01*
X1061Y968D02*
X1067Y968D01*
X1112Y968D02*
X1118Y968D01*
X1133Y968D02*
X1145Y968D01*
X1162Y968D02*
X1168Y968D01*
X1212Y968D02*
X1218Y968D01*
X1240Y968D02*
X1246Y968D01*
X1262Y968D02*
X1268Y968D01*
X1290Y968D02*
X1296Y968D01*
X1340Y968D02*
X1346Y968D01*
X139Y967D02*
X156Y967D01*
X181Y967D02*
X212Y967D01*
X233Y967D02*
X235Y967D01*
X256Y967D02*
X264Y967D01*
X281Y967D02*
X312Y967D01*
X336Y967D02*
X360Y967D01*
X387Y967D02*
X410Y967D01*
X434Y967D02*
X460Y967D01*
X1012Y967D02*
X1018Y967D01*
X1037Y967D02*
X1044Y967D01*
X1061Y967D02*
X1067Y967D01*
X1112Y967D02*
X1118Y967D01*
X1133Y967D02*
X1145Y967D01*
X1162Y967D02*
X1168Y967D01*
X1212Y967D02*
X1218Y967D01*
X1240Y967D02*
X1246Y967D01*
X1262Y967D02*
X1268Y967D01*
X1290Y967D02*
X1296Y967D01*
X1340Y967D02*
X1346Y967D01*
X1012Y966D02*
X1044Y966D01*
X1061Y966D02*
X1092Y966D01*
X1112Y966D02*
X1118Y966D01*
X1134Y966D02*
X1145Y966D01*
X1162Y966D02*
X1192Y966D01*
X1212Y966D02*
X1246Y966D01*
X1262Y966D02*
X1296Y966D01*
X1315Y966D02*
X1346Y966D01*
X1012Y965D02*
X1044Y965D01*
X1061Y965D02*
X1094Y965D01*
X1112Y965D02*
X1118Y965D01*
X1134Y965D02*
X1145Y965D01*
X1162Y965D02*
X1194Y965D01*
X1212Y965D02*
X1246Y965D01*
X1262Y965D02*
X1296Y965D01*
X1313Y965D02*
X1346Y965D01*
X1013Y964D02*
X1043Y964D01*
X1061Y964D02*
X1095Y964D01*
X1112Y964D02*
X1118Y964D01*
X1135Y964D02*
X1145Y964D01*
X1162Y964D02*
X1195Y964D01*
X1212Y964D02*
X1245Y964D01*
X1263Y964D02*
X1295Y964D01*
X1313Y964D02*
X1346Y964D01*
X1014Y963D02*
X1042Y963D01*
X1061Y963D02*
X1095Y963D01*
X1112Y963D02*
X1118Y963D01*
X1135Y963D02*
X1145Y963D01*
X1162Y963D02*
X1195Y963D01*
X1213Y963D02*
X1245Y963D01*
X1263Y963D02*
X1295Y963D01*
X1313Y963D02*
X1345Y963D01*
X1015Y962D02*
X1041Y962D01*
X1061Y962D02*
X1095Y962D01*
X1112Y962D02*
X1118Y962D01*
X1136Y962D02*
X1145Y962D01*
X1162Y962D02*
X1195Y962D01*
X1213Y962D02*
X1244Y962D01*
X1264Y962D02*
X1294Y962D01*
X1313Y962D02*
X1345Y962D01*
X1016Y961D02*
X1040Y961D01*
X1061Y961D02*
X1095Y961D01*
X1112Y961D02*
X1117Y961D01*
X1136Y961D02*
X1145Y961D01*
X1162Y961D02*
X1195Y961D01*
X1214Y961D02*
X1243Y961D01*
X1265Y961D02*
X1293Y961D01*
X1313Y961D02*
X1344Y961D01*
X1017Y960D02*
X1039Y960D01*
X1061Y960D02*
X1094Y960D01*
X1113Y960D02*
X1116Y960D01*
X1136Y960D02*
X1145Y960D01*
X1162Y960D02*
X1194Y960D01*
X1216Y960D02*
X1242Y960D01*
X1266Y960D02*
X1292Y960D01*
X1314Y960D02*
X1342Y960D01*
X1335Y132D02*
X1360Y132D01*
X1374Y132D02*
X1380Y132D01*
X1396Y132D02*
X1399Y132D01*
X1412Y132D02*
X1438Y132D01*
X1451Y132D02*
X1476Y132D01*
X1490Y132D02*
X1512Y132D01*
X1532Y132D02*
X1551Y132D01*
X1568Y132D02*
X1590Y132D01*
X1607Y132D02*
X1632Y132D01*
X1656Y132D02*
X1671Y132D01*
X1686Y132D02*
X1710Y132D01*
X1724Y132D02*
X1749Y132D01*
X1764Y132D02*
X1788Y132D01*
X1812Y132D02*
X1827Y132D01*
X1844Y132D02*
X1863Y132D01*
X1335Y131D02*
X1360Y131D01*
X1374Y131D02*
X1381Y131D01*
X1395Y131D02*
X1399Y131D01*
X1412Y131D02*
X1438Y131D01*
X1451Y131D02*
X1477Y131D01*
X1490Y131D02*
X1513Y131D01*
X1531Y131D02*
X1553Y131D01*
X1568Y131D02*
X1591Y131D01*
X1607Y131D02*
X1633Y131D01*
X1655Y131D02*
X1672Y131D01*
X1685Y131D02*
X1711Y131D01*
X1724Y131D02*
X1750Y131D01*
X1763Y131D02*
X1789Y131D01*
X1811Y131D02*
X1828Y131D01*
X1843Y131D02*
X1864Y131D01*
X221Y130D02*
X223Y130D01*
X437Y130D02*
X439Y130D01*
X476Y130D02*
X478Y130D01*
X494Y130D02*
X496Y130D01*
X533Y130D02*
X547Y130D01*
X574Y130D02*
X593Y130D01*
X1335Y130D02*
X1360Y130D01*
X1374Y130D02*
X1381Y130D01*
X1395Y130D02*
X1399Y130D01*
X1412Y130D02*
X1438Y130D01*
X1451Y130D02*
X1477Y130D01*
X1490Y130D02*
X1514Y130D01*
X1530Y130D02*
X1554Y130D01*
X1568Y130D02*
X1592Y130D01*
X1607Y130D02*
X1633Y130D01*
X1654Y130D02*
X1672Y130D01*
X1685Y130D02*
X1711Y130D01*
X1724Y130D02*
X1750Y130D01*
X1763Y130D02*
X1789Y130D01*
X1810Y130D02*
X1828Y130D01*
X1842Y130D02*
X1865Y130D01*
X220Y129D02*
X224Y129D01*
X436Y129D02*
X440Y129D01*
X475Y129D02*
X479Y129D01*
X493Y129D02*
X497Y129D01*
X532Y129D02*
X547Y129D01*
X572Y129D02*
X594Y129D01*
X1335Y129D02*
X1360Y129D01*
X1374Y129D02*
X1381Y129D01*
X1395Y129D02*
X1399Y129D01*
X1412Y129D02*
X1438Y129D01*
X1451Y129D02*
X1477Y129D01*
X1490Y129D02*
X1515Y129D01*
X1530Y129D02*
X1554Y129D01*
X1568Y129D02*
X1593Y129D01*
X1607Y129D02*
X1633Y129D01*
X1653Y129D02*
X1672Y129D01*
X1685Y129D02*
X1711Y129D01*
X1724Y129D02*
X1750Y129D01*
X1763Y129D02*
X1788Y129D01*
X1809Y129D02*
X1827Y129D01*
X1841Y129D02*
X1866Y129D01*
X220Y128D02*
X224Y128D01*
X266Y128D02*
X267Y128D01*
X305Y128D02*
X306Y128D01*
X436Y128D02*
X440Y128D01*
X475Y128D02*
X479Y128D01*
X493Y128D02*
X497Y128D01*
X531Y128D02*
X547Y128D01*
X571Y128D02*
X595Y128D01*
X1336Y128D02*
X1359Y128D01*
X1374Y128D02*
X1382Y128D01*
X1395Y128D02*
X1399Y128D01*
X1412Y128D02*
X1438Y128D01*
X1451Y128D02*
X1476Y128D01*
X1490Y128D02*
X1516Y128D01*
X1529Y128D02*
X1555Y128D01*
X1568Y128D02*
X1593Y128D01*
X1607Y128D02*
X1632Y128D01*
X1653Y128D02*
X1671Y128D01*
X1686Y128D02*
X1710Y128D01*
X1724Y128D02*
X1749Y128D01*
X1764Y128D02*
X1788Y128D01*
X1808Y128D02*
X1826Y128D01*
X1841Y128D02*
X1866Y128D01*
X220Y127D02*
X224Y127D01*
X265Y127D02*
X268Y127D01*
X304Y127D02*
X307Y127D01*
X435Y127D02*
X440Y127D01*
X474Y127D02*
X479Y127D01*
X492Y127D02*
X497Y127D01*
X532Y127D02*
X547Y127D01*
X571Y127D02*
X596Y127D01*
X1345Y127D02*
X1350Y127D01*
X1374Y127D02*
X1382Y127D01*
X1395Y127D02*
X1399Y127D01*
X1412Y127D02*
X1417Y127D01*
X1423Y127D02*
X1428Y127D01*
X1434Y127D02*
X1438Y127D01*
X1451Y127D02*
X1456Y127D01*
X1490Y127D02*
X1495Y127D01*
X1510Y127D02*
X1516Y127D01*
X1529Y127D02*
X1534Y127D01*
X1550Y127D02*
X1555Y127D01*
X1568Y127D02*
X1573Y127D01*
X1588Y127D02*
X1594Y127D01*
X1607Y127D02*
X1612Y127D01*
X1652Y127D02*
X1658Y127D01*
X1696Y127D02*
X1700Y127D01*
X1724Y127D02*
X1728Y127D01*
X1774Y127D02*
X1778Y127D01*
X1808Y127D02*
X1814Y127D01*
X1841Y127D02*
X1845Y127D01*
X1862Y127D02*
X1867Y127D01*
X220Y126D02*
X224Y126D01*
X264Y126D02*
X269Y126D01*
X303Y126D02*
X307Y126D01*
X435Y126D02*
X440Y126D01*
X473Y126D02*
X479Y126D01*
X492Y126D02*
X497Y126D01*
X532Y126D02*
X547Y126D01*
X571Y126D02*
X596Y126D01*
X1345Y126D02*
X1350Y126D01*
X1374Y126D02*
X1383Y126D01*
X1395Y126D02*
X1399Y126D01*
X1412Y126D02*
X1417Y126D01*
X1423Y126D02*
X1428Y126D01*
X1434Y126D02*
X1438Y126D01*
X1451Y126D02*
X1456Y126D01*
X1490Y126D02*
X1495Y126D01*
X1511Y126D02*
X1516Y126D01*
X1529Y126D02*
X1534Y126D01*
X1551Y126D02*
X1555Y126D01*
X1568Y126D02*
X1573Y126D01*
X1589Y126D02*
X1594Y126D01*
X1607Y126D02*
X1612Y126D01*
X1652Y126D02*
X1657Y126D01*
X1696Y126D02*
X1700Y126D01*
X1724Y126D02*
X1728Y126D01*
X1774Y126D02*
X1778Y126D01*
X1807Y126D02*
X1813Y126D01*
X1841Y126D02*
X1846Y126D01*
X1862Y126D02*
X1867Y126D01*
X220Y125D02*
X224Y125D01*
X264Y125D02*
X269Y125D01*
X303Y125D02*
X308Y125D01*
X434Y125D02*
X439Y125D01*
X473Y125D02*
X478Y125D01*
X492Y125D02*
X497Y125D01*
X534Y125D02*
X547Y125D01*
X570Y125D02*
X596Y125D01*
X1345Y125D02*
X1350Y125D01*
X1374Y125D02*
X1383Y125D01*
X1395Y125D02*
X1399Y125D01*
X1413Y125D02*
X1417Y125D01*
X1423Y125D02*
X1428Y125D01*
X1434Y125D02*
X1438Y125D01*
X1451Y125D02*
X1456Y125D01*
X1490Y125D02*
X1495Y125D01*
X1512Y125D02*
X1516Y125D01*
X1530Y125D02*
X1535Y125D01*
X1551Y125D02*
X1555Y125D01*
X1568Y125D02*
X1573Y125D01*
X1590Y125D02*
X1594Y125D01*
X1607Y125D02*
X1612Y125D01*
X1651Y125D02*
X1656Y125D01*
X1696Y125D02*
X1700Y125D01*
X1724Y125D02*
X1728Y125D01*
X1774Y125D02*
X1778Y125D01*
X1807Y125D02*
X1812Y125D01*
X1841Y125D02*
X1847Y125D01*
X1862Y125D02*
X1867Y125D01*
X220Y124D02*
X224Y124D01*
X264Y124D02*
X269Y124D01*
X303Y124D02*
X308Y124D01*
X433Y124D02*
X439Y124D01*
X472Y124D02*
X478Y124D01*
X492Y124D02*
X497Y124D01*
X542Y124D02*
X547Y124D01*
X570Y124D02*
X575Y124D01*
X592Y124D02*
X596Y124D01*
X1345Y124D02*
X1350Y124D01*
X1374Y124D02*
X1384Y124D01*
X1395Y124D02*
X1399Y124D01*
X1413Y124D02*
X1416Y124D01*
X1423Y124D02*
X1428Y124D01*
X1434Y124D02*
X1438Y124D01*
X1451Y124D02*
X1456Y124D01*
X1490Y124D02*
X1495Y124D01*
X1512Y124D02*
X1516Y124D01*
X1530Y124D02*
X1536Y124D01*
X1551Y124D02*
X1554Y124D01*
X1568Y124D02*
X1573Y124D01*
X1590Y124D02*
X1594Y124D01*
X1607Y124D02*
X1612Y124D01*
X1651Y124D02*
X1656Y124D01*
X1696Y124D02*
X1700Y124D01*
X1724Y124D02*
X1728Y124D01*
X1774Y124D02*
X1778Y124D01*
X1806Y124D02*
X1812Y124D01*
X1842Y124D02*
X1847Y124D01*
X1863Y124D02*
X1866Y124D01*
X220Y123D02*
X224Y123D01*
X264Y123D02*
X269Y123D01*
X303Y123D02*
X308Y123D01*
X385Y123D02*
X392Y123D01*
X433Y123D02*
X438Y123D01*
X472Y123D02*
X477Y123D01*
X492Y123D02*
X497Y123D01*
X542Y123D02*
X547Y123D01*
X570Y123D02*
X575Y123D01*
X592Y123D02*
X596Y123D01*
X1345Y123D02*
X1350Y123D01*
X1374Y123D02*
X1384Y123D01*
X1395Y123D02*
X1399Y123D01*
X1415Y123D02*
X1415Y123D01*
X1423Y123D02*
X1428Y123D01*
X1436Y123D02*
X1436Y123D01*
X1451Y123D02*
X1456Y123D01*
X1490Y123D02*
X1495Y123D01*
X1512Y123D02*
X1516Y123D01*
X1531Y123D02*
X1537Y123D01*
X1553Y123D02*
X1553Y123D01*
X1568Y123D02*
X1573Y123D01*
X1590Y123D02*
X1594Y123D01*
X1607Y123D02*
X1612Y123D01*
X1650Y123D02*
X1655Y123D01*
X1696Y123D02*
X1700Y123D01*
X1724Y123D02*
X1728Y123D01*
X1774Y123D02*
X1778Y123D01*
X1806Y123D02*
X1811Y123D01*
X1842Y123D02*
X1848Y123D01*
X220Y122D02*
X224Y122D01*
X264Y122D02*
X269Y122D01*
X303Y122D02*
X308Y122D01*
X384Y122D02*
X393Y122D01*
X432Y122D02*
X438Y122D01*
X471Y122D02*
X476Y122D01*
X492Y122D02*
X497Y122D01*
X542Y122D02*
X547Y122D01*
X570Y122D02*
X575Y122D01*
X592Y122D02*
X596Y122D01*
X1345Y122D02*
X1350Y122D01*
X1374Y122D02*
X1378Y122D01*
X1380Y122D02*
X1385Y122D01*
X1395Y122D02*
X1399Y122D01*
X1423Y122D02*
X1428Y122D01*
X1451Y122D02*
X1456Y122D01*
X1490Y122D02*
X1495Y122D01*
X1512Y122D02*
X1516Y122D01*
X1531Y122D02*
X1537Y122D01*
X1568Y122D02*
X1573Y122D01*
X1590Y122D02*
X1594Y122D01*
X1607Y122D02*
X1612Y122D01*
X1650Y122D02*
X1655Y122D01*
X1696Y122D02*
X1700Y122D01*
X1724Y122D02*
X1728Y122D01*
X1774Y122D02*
X1778Y122D01*
X1805Y122D02*
X1811Y122D01*
X1843Y122D02*
X1849Y122D01*
X220Y121D02*
X224Y121D01*
X264Y121D02*
X269Y121D01*
X303Y121D02*
X308Y121D01*
X384Y121D02*
X393Y121D01*
X432Y121D02*
X437Y121D01*
X471Y121D02*
X476Y121D01*
X492Y121D02*
X497Y121D01*
X542Y121D02*
X547Y121D01*
X570Y121D02*
X575Y121D01*
X592Y121D02*
X596Y121D01*
X1345Y121D02*
X1350Y121D01*
X1374Y121D02*
X1378Y121D01*
X1380Y121D02*
X1385Y121D01*
X1395Y121D02*
X1399Y121D01*
X1423Y121D02*
X1428Y121D01*
X1451Y121D02*
X1456Y121D01*
X1490Y121D02*
X1495Y121D01*
X1512Y121D02*
X1516Y121D01*
X1532Y121D02*
X1538Y121D01*
X1568Y121D02*
X1573Y121D01*
X1590Y121D02*
X1594Y121D01*
X1607Y121D02*
X1612Y121D01*
X1649Y121D02*
X1654Y121D01*
X1696Y121D02*
X1700Y121D01*
X1724Y121D02*
X1728Y121D01*
X1774Y121D02*
X1778Y121D01*
X1805Y121D02*
X1810Y121D01*
X1844Y121D02*
X1850Y121D01*
X220Y120D02*
X224Y120D01*
X264Y120D02*
X269Y120D01*
X303Y120D02*
X308Y120D01*
X339Y120D02*
X339Y120D01*
X348Y120D02*
X351Y120D01*
X384Y120D02*
X393Y120D01*
X431Y120D02*
X436Y120D01*
X470Y120D02*
X475Y120D01*
X492Y120D02*
X497Y120D01*
X542Y120D02*
X547Y120D01*
X570Y120D02*
X575Y120D01*
X592Y120D02*
X596Y120D01*
X1345Y120D02*
X1350Y120D01*
X1374Y120D02*
X1378Y120D01*
X1380Y120D02*
X1385Y120D01*
X1395Y120D02*
X1399Y120D01*
X1423Y120D02*
X1428Y120D01*
X1451Y120D02*
X1456Y120D01*
X1490Y120D02*
X1495Y120D01*
X1511Y120D02*
X1516Y120D01*
X1533Y120D02*
X1539Y120D01*
X1568Y120D02*
X1573Y120D01*
X1590Y120D02*
X1594Y120D01*
X1607Y120D02*
X1612Y120D01*
X1649Y120D02*
X1654Y120D01*
X1696Y120D02*
X1700Y120D01*
X1724Y120D02*
X1728Y120D01*
X1774Y120D02*
X1778Y120D01*
X1804Y120D02*
X1810Y120D01*
X1844Y120D02*
X1850Y120D01*
X220Y119D02*
X224Y119D01*
X235Y119D02*
X237Y119D01*
X262Y119D02*
X279Y119D01*
X301Y119D02*
X318Y119D01*
X337Y119D02*
X341Y119D01*
X346Y119D02*
X354Y119D01*
X384Y119D02*
X393Y119D01*
X430Y119D02*
X436Y119D01*
X469Y119D02*
X475Y119D01*
X492Y119D02*
X497Y119D01*
X505Y119D02*
X509Y119D01*
X542Y119D02*
X547Y119D01*
X570Y119D02*
X575Y119D01*
X592Y119D02*
X596Y119D01*
X617Y119D02*
X627Y119D01*
X700Y119D02*
X710Y119D01*
X739Y119D02*
X749Y119D01*
X1345Y119D02*
X1350Y119D01*
X1374Y119D02*
X1378Y119D01*
X1381Y119D02*
X1386Y119D01*
X1395Y119D02*
X1399Y119D01*
X1423Y119D02*
X1428Y119D01*
X1451Y119D02*
X1456Y119D01*
X1490Y119D02*
X1516Y119D01*
X1534Y119D02*
X1540Y119D01*
X1568Y119D02*
X1573Y119D01*
X1590Y119D02*
X1594Y119D01*
X1607Y119D02*
X1612Y119D01*
X1648Y119D02*
X1653Y119D01*
X1696Y119D02*
X1700Y119D01*
X1724Y119D02*
X1743Y119D01*
X1774Y119D02*
X1778Y119D01*
X1804Y119D02*
X1809Y119D01*
X1845Y119D02*
X1851Y119D01*
X220Y118D02*
X224Y118D01*
X231Y118D02*
X241Y118D01*
X260Y118D02*
X281Y118D01*
X298Y118D02*
X320Y118D01*
X337Y118D02*
X341Y118D01*
X344Y118D02*
X355Y118D01*
X384Y118D02*
X393Y118D01*
X430Y118D02*
X435Y118D01*
X469Y118D02*
X474Y118D01*
X492Y118D02*
X497Y118D01*
X501Y118D02*
X512Y118D01*
X542Y118D02*
X547Y118D01*
X570Y118D02*
X575Y118D01*
X592Y118D02*
X596Y118D01*
X613Y118D02*
X631Y118D01*
X696Y118D02*
X712Y118D01*
X735Y118D02*
X751Y118D01*
X1345Y118D02*
X1350Y118D01*
X1374Y118D02*
X1378Y118D01*
X1381Y118D02*
X1386Y118D01*
X1395Y118D02*
X1399Y118D01*
X1423Y118D02*
X1428Y118D01*
X1451Y118D02*
X1456Y118D01*
X1490Y118D02*
X1515Y118D01*
X1534Y118D02*
X1540Y118D01*
X1568Y118D02*
X1573Y118D01*
X1590Y118D02*
X1594Y118D01*
X1607Y118D02*
X1612Y118D01*
X1648Y118D02*
X1653Y118D01*
X1696Y118D02*
X1700Y118D01*
X1724Y118D02*
X1744Y118D01*
X1774Y118D02*
X1778Y118D01*
X1803Y118D02*
X1809Y118D01*
X1846Y118D02*
X1852Y118D01*
X220Y117D02*
X224Y117D01*
X229Y117D02*
X242Y117D01*
X259Y117D02*
X282Y117D01*
X298Y117D02*
X321Y117D01*
X337Y117D02*
X341Y117D01*
X343Y117D02*
X357Y117D01*
X384Y117D02*
X393Y117D01*
X429Y117D02*
X435Y117D01*
X468Y117D02*
X474Y117D01*
X492Y117D02*
X497Y117D01*
X500Y117D02*
X514Y117D01*
X542Y117D02*
X547Y117D01*
X570Y117D02*
X575Y117D01*
X592Y117D02*
X596Y117D01*
X612Y117D02*
X633Y117D01*
X694Y117D02*
X713Y117D01*
X733Y117D02*
X752Y117D01*
X1345Y117D02*
X1350Y117D01*
X1374Y117D02*
X1378Y117D01*
X1382Y117D02*
X1387Y117D01*
X1395Y117D02*
X1399Y117D01*
X1423Y117D02*
X1428Y117D01*
X1451Y117D02*
X1456Y117D01*
X1490Y117D02*
X1514Y117D01*
X1535Y117D02*
X1541Y117D01*
X1568Y117D02*
X1573Y117D01*
X1590Y117D02*
X1594Y117D01*
X1607Y117D02*
X1612Y117D01*
X1647Y117D02*
X1652Y117D01*
X1696Y117D02*
X1700Y117D01*
X1724Y117D02*
X1744Y117D01*
X1774Y117D02*
X1778Y117D01*
X1803Y117D02*
X1808Y117D01*
X1847Y117D02*
X1853Y117D01*
X220Y116D02*
X224Y116D01*
X228Y116D02*
X243Y116D01*
X259Y116D02*
X282Y116D01*
X298Y116D02*
X321Y116D01*
X337Y116D02*
X358Y116D01*
X384Y116D02*
X393Y116D01*
X429Y116D02*
X434Y116D01*
X468Y116D02*
X473Y116D01*
X492Y116D02*
X515Y116D01*
X542Y116D02*
X547Y116D01*
X570Y116D02*
X575Y116D01*
X592Y116D02*
X596Y116D01*
X611Y116D02*
X634Y116D01*
X693Y116D02*
X713Y116D01*
X732Y116D02*
X752Y116D01*
X1345Y116D02*
X1350Y116D01*
X1374Y116D02*
X1378Y116D01*
X1382Y116D02*
X1387Y116D01*
X1395Y116D02*
X1399Y116D01*
X1423Y116D02*
X1428Y116D01*
X1451Y116D02*
X1456Y116D01*
X1490Y116D02*
X1514Y116D01*
X1536Y116D02*
X1542Y116D01*
X1568Y116D02*
X1573Y116D01*
X1590Y116D02*
X1594Y116D01*
X1607Y116D02*
X1612Y116D01*
X1647Y116D02*
X1652Y116D01*
X1696Y116D02*
X1700Y116D01*
X1724Y116D02*
X1744Y116D01*
X1774Y116D02*
X1778Y116D01*
X1803Y116D02*
X1808Y116D01*
X1848Y116D02*
X1854Y116D01*
X220Y115D02*
X224Y115D01*
X226Y115D02*
X244Y115D01*
X259Y115D02*
X282Y115D01*
X298Y115D02*
X320Y115D01*
X337Y115D02*
X359Y115D01*
X384Y115D02*
X393Y115D01*
X428Y115D02*
X433Y115D01*
X467Y115D02*
X472Y115D01*
X492Y115D02*
X516Y115D01*
X542Y115D02*
X547Y115D01*
X570Y115D02*
X575Y115D01*
X592Y115D02*
X596Y115D01*
X611Y115D02*
X634Y115D01*
X692Y115D02*
X713Y115D01*
X731Y115D02*
X752Y115D01*
X1345Y115D02*
X1350Y115D01*
X1374Y115D02*
X1378Y115D01*
X1383Y115D02*
X1388Y115D01*
X1395Y115D02*
X1399Y115D01*
X1423Y115D02*
X1428Y115D01*
X1451Y115D02*
X1456Y115D01*
X1490Y115D02*
X1512Y115D01*
X1537Y115D02*
X1543Y115D01*
X1568Y115D02*
X1573Y115D01*
X1590Y115D02*
X1594Y115D01*
X1607Y115D02*
X1612Y115D01*
X1647Y115D02*
X1651Y115D01*
X1696Y115D02*
X1700Y115D01*
X1724Y115D02*
X1744Y115D01*
X1774Y115D02*
X1778Y115D01*
X1802Y115D02*
X1807Y115D01*
X1848Y115D02*
X1854Y115D01*
X220Y114D02*
X244Y114D01*
X260Y114D02*
X281Y114D01*
X299Y114D02*
X320Y114D01*
X337Y114D02*
X347Y114D01*
X353Y114D02*
X360Y114D01*
X385Y114D02*
X392Y114D01*
X427Y114D02*
X433Y114D01*
X466Y114D02*
X472Y114D01*
X492Y114D02*
X517Y114D01*
X542Y114D02*
X547Y114D01*
X570Y114D02*
X575Y114D01*
X592Y114D02*
X596Y114D01*
X610Y114D02*
X635Y114D01*
X691Y114D02*
X712Y114D01*
X730Y114D02*
X751Y114D01*
X1345Y114D02*
X1350Y114D01*
X1374Y114D02*
X1378Y114D01*
X1383Y114D02*
X1388Y114D01*
X1395Y114D02*
X1399Y114D01*
X1423Y114D02*
X1428Y114D01*
X1451Y114D02*
X1466Y114D01*
X1490Y114D02*
X1510Y114D01*
X1538Y114D02*
X1544Y114D01*
X1568Y114D02*
X1573Y114D01*
X1589Y114D02*
X1594Y114D01*
X1607Y114D02*
X1621Y114D01*
X1646Y114D02*
X1651Y114D01*
X1696Y114D02*
X1700Y114D01*
X1724Y114D02*
X1743Y114D01*
X1774Y114D02*
X1778Y114D01*
X1802Y114D02*
X1807Y114D01*
X1849Y114D02*
X1855Y114D01*
X220Y113D02*
X232Y113D01*
X239Y113D02*
X245Y113D01*
X264Y113D02*
X269Y113D01*
X303Y113D02*
X308Y113D01*
X337Y113D02*
X346Y113D01*
X354Y113D02*
X361Y113D01*
X427Y113D02*
X432Y113D01*
X466Y113D02*
X471Y113D01*
X492Y113D02*
X503Y113D01*
X511Y113D02*
X517Y113D01*
X542Y113D02*
X547Y113D01*
X570Y113D02*
X575Y113D01*
X592Y113D02*
X596Y113D01*
X610Y113D02*
X615Y113D01*
X630Y113D02*
X634Y113D01*
X690Y113D02*
X697Y113D01*
X729Y113D02*
X736Y113D01*
X1345Y113D02*
X1350Y113D01*
X1374Y113D02*
X1378Y113D01*
X1383Y113D02*
X1388Y113D01*
X1395Y113D02*
X1399Y113D01*
X1423Y113D02*
X1428Y113D01*
X1451Y113D02*
X1466Y113D01*
X1490Y113D02*
X1495Y113D01*
X1500Y113D02*
X1505Y113D01*
X1538Y113D02*
X1544Y113D01*
X1568Y113D02*
X1573Y113D01*
X1589Y113D02*
X1594Y113D01*
X1607Y113D02*
X1622Y113D01*
X1646Y113D02*
X1651Y113D01*
X1696Y113D02*
X1700Y113D01*
X1724Y113D02*
X1728Y113D01*
X1774Y113D02*
X1778Y113D01*
X1802Y113D02*
X1806Y113D01*
X1850Y113D02*
X1856Y113D01*
X220Y112D02*
X231Y112D01*
X240Y112D02*
X245Y112D01*
X264Y112D02*
X269Y112D01*
X303Y112D02*
X308Y112D01*
X337Y112D02*
X345Y112D01*
X355Y112D02*
X361Y112D01*
X426Y112D02*
X432Y112D01*
X465Y112D02*
X471Y112D01*
X492Y112D02*
X501Y112D01*
X512Y112D02*
X518Y112D01*
X542Y112D02*
X547Y112D01*
X570Y112D02*
X575Y112D01*
X592Y112D02*
X596Y112D01*
X610Y112D02*
X614Y112D01*
X631Y112D02*
X634Y112D01*
X689Y112D02*
X696Y112D01*
X728Y112D02*
X735Y112D01*
X1345Y112D02*
X1350Y112D01*
X1374Y112D02*
X1378Y112D01*
X1384Y112D02*
X1389Y112D01*
X1395Y112D02*
X1399Y112D01*
X1423Y112D02*
X1428Y112D01*
X1451Y112D02*
X1466Y112D01*
X1490Y112D02*
X1495Y112D01*
X1501Y112D02*
X1506Y112D01*
X1539Y112D02*
X1545Y112D01*
X1568Y112D02*
X1593Y112D01*
X1607Y112D02*
X1622Y112D01*
X1646Y112D02*
X1651Y112D01*
X1696Y112D02*
X1700Y112D01*
X1724Y112D02*
X1728Y112D01*
X1774Y112D02*
X1778Y112D01*
X1802Y112D02*
X1806Y112D01*
X1851Y112D02*
X1857Y112D01*
X220Y111D02*
X229Y111D01*
X241Y111D02*
X245Y111D01*
X264Y111D02*
X269Y111D01*
X303Y111D02*
X308Y111D01*
X337Y111D02*
X344Y111D01*
X356Y111D02*
X362Y111D01*
X426Y111D02*
X431Y111D01*
X465Y111D02*
X470Y111D01*
X492Y111D02*
X500Y111D01*
X513Y111D02*
X518Y111D01*
X542Y111D02*
X547Y111D01*
X570Y111D02*
X575Y111D01*
X592Y111D02*
X596Y111D01*
X610Y111D02*
X615Y111D01*
X688Y111D02*
X695Y111D01*
X727Y111D02*
X734Y111D01*
X1345Y111D02*
X1350Y111D01*
X1374Y111D02*
X1378Y111D01*
X1384Y111D02*
X1389Y111D01*
X1395Y111D02*
X1399Y111D01*
X1423Y111D02*
X1428Y111D01*
X1451Y111D02*
X1466Y111D01*
X1490Y111D02*
X1495Y111D01*
X1501Y111D02*
X1506Y111D01*
X1540Y111D02*
X1546Y111D01*
X1568Y111D02*
X1593Y111D01*
X1607Y111D02*
X1622Y111D01*
X1646Y111D02*
X1651Y111D01*
X1696Y111D02*
X1700Y111D01*
X1724Y111D02*
X1728Y111D01*
X1774Y111D02*
X1778Y111D01*
X1802Y111D02*
X1806Y111D01*
X1851Y111D02*
X1857Y111D01*
X220Y110D02*
X228Y110D01*
X241Y110D02*
X245Y110D01*
X264Y110D02*
X269Y110D01*
X303Y110D02*
X308Y110D01*
X337Y110D02*
X343Y110D01*
X357Y110D02*
X362Y110D01*
X425Y110D02*
X430Y110D01*
X464Y110D02*
X469Y110D01*
X492Y110D02*
X499Y110D01*
X514Y110D02*
X518Y110D01*
X542Y110D02*
X547Y110D01*
X570Y110D02*
X575Y110D01*
X592Y110D02*
X596Y110D01*
X610Y110D02*
X617Y110D01*
X688Y110D02*
X694Y110D01*
X727Y110D02*
X733Y110D01*
X1345Y110D02*
X1350Y110D01*
X1374Y110D02*
X1378Y110D01*
X1385Y110D02*
X1390Y110D01*
X1395Y110D02*
X1399Y110D01*
X1423Y110D02*
X1428Y110D01*
X1451Y110D02*
X1466Y110D01*
X1490Y110D02*
X1495Y110D01*
X1502Y110D02*
X1507Y110D01*
X1541Y110D02*
X1547Y110D01*
X1568Y110D02*
X1592Y110D01*
X1607Y110D02*
X1621Y110D01*
X1646Y110D02*
X1651Y110D01*
X1696Y110D02*
X1700Y110D01*
X1724Y110D02*
X1728Y110D01*
X1774Y110D02*
X1778Y110D01*
X1802Y110D02*
X1807Y110D01*
X1852Y110D02*
X1858Y110D01*
X220Y109D02*
X226Y109D01*
X241Y109D02*
X245Y109D01*
X264Y109D02*
X269Y109D01*
X303Y109D02*
X308Y109D01*
X337Y109D02*
X342Y109D01*
X358Y109D02*
X362Y109D01*
X425Y109D02*
X430Y109D01*
X464Y109D02*
X469Y109D01*
X492Y109D02*
X498Y109D01*
X514Y109D02*
X518Y109D01*
X542Y109D02*
X547Y109D01*
X570Y109D02*
X575Y109D01*
X592Y109D02*
X596Y109D01*
X611Y109D02*
X619Y109D01*
X687Y109D02*
X693Y109D01*
X726Y109D02*
X732Y109D01*
X1345Y109D02*
X1350Y109D01*
X1374Y109D02*
X1378Y109D01*
X1385Y109D02*
X1390Y109D01*
X1395Y109D02*
X1399Y109D01*
X1423Y109D02*
X1428Y109D01*
X1451Y109D02*
X1456Y109D01*
X1490Y109D02*
X1495Y109D01*
X1502Y109D02*
X1508Y109D01*
X1541Y109D02*
X1547Y109D01*
X1568Y109D02*
X1591Y109D01*
X1607Y109D02*
X1612Y109D01*
X1647Y109D02*
X1651Y109D01*
X1696Y109D02*
X1700Y109D01*
X1724Y109D02*
X1728Y109D01*
X1774Y109D02*
X1778Y109D01*
X1802Y109D02*
X1807Y109D01*
X1853Y109D02*
X1859Y109D01*
X220Y108D02*
X225Y108D01*
X241Y108D02*
X245Y108D01*
X264Y108D02*
X269Y108D01*
X303Y108D02*
X308Y108D01*
X337Y108D02*
X341Y108D01*
X358Y108D02*
X363Y108D01*
X424Y108D02*
X429Y108D01*
X463Y108D02*
X468Y108D01*
X492Y108D02*
X497Y108D01*
X514Y108D02*
X518Y108D01*
X542Y108D02*
X547Y108D01*
X570Y108D02*
X575Y108D01*
X592Y108D02*
X596Y108D01*
X611Y108D02*
X622Y108D01*
X687Y108D02*
X692Y108D01*
X726Y108D02*
X731Y108D01*
X1345Y108D02*
X1350Y108D01*
X1374Y108D02*
X1378Y108D01*
X1386Y108D02*
X1391Y108D01*
X1395Y108D02*
X1399Y108D01*
X1423Y108D02*
X1428Y108D01*
X1451Y108D02*
X1456Y108D01*
X1490Y108D02*
X1495Y108D01*
X1503Y108D02*
X1508Y108D01*
X1542Y108D02*
X1548Y108D01*
X1568Y108D02*
X1590Y108D01*
X1607Y108D02*
X1612Y108D01*
X1647Y108D02*
X1652Y108D01*
X1696Y108D02*
X1700Y108D01*
X1724Y108D02*
X1728Y108D01*
X1774Y108D02*
X1778Y108D01*
X1803Y108D02*
X1807Y108D01*
X1854Y108D02*
X1860Y108D01*
X220Y107D02*
X224Y107D01*
X241Y107D02*
X245Y107D01*
X264Y107D02*
X269Y107D01*
X303Y107D02*
X308Y107D01*
X337Y107D02*
X341Y107D01*
X358Y107D02*
X363Y107D01*
X423Y107D02*
X429Y107D01*
X462Y107D02*
X468Y107D01*
X492Y107D02*
X497Y107D01*
X514Y107D02*
X518Y107D01*
X542Y107D02*
X547Y107D01*
X554Y107D02*
X556Y107D01*
X570Y107D02*
X575Y107D01*
X592Y107D02*
X596Y107D01*
X612Y107D02*
X624Y107D01*
X687Y107D02*
X692Y107D01*
X726Y107D02*
X731Y107D01*
X1345Y107D02*
X1350Y107D01*
X1374Y107D02*
X1378Y107D01*
X1386Y107D02*
X1391Y107D01*
X1395Y107D02*
X1399Y107D01*
X1423Y107D02*
X1428Y107D01*
X1451Y107D02*
X1456Y107D01*
X1490Y107D02*
X1495Y107D01*
X1503Y107D02*
X1509Y107D01*
X1543Y107D02*
X1549Y107D01*
X1568Y107D02*
X1587Y107D01*
X1607Y107D02*
X1612Y107D01*
X1647Y107D02*
X1652Y107D01*
X1696Y107D02*
X1700Y107D01*
X1724Y107D02*
X1728Y107D01*
X1774Y107D02*
X1778Y107D01*
X1803Y107D02*
X1808Y107D01*
X1855Y107D02*
X1861Y107D01*
X220Y106D02*
X224Y106D01*
X241Y106D02*
X245Y106D01*
X264Y106D02*
X269Y106D01*
X303Y106D02*
X308Y106D01*
X337Y106D02*
X341Y106D01*
X358Y106D02*
X363Y106D01*
X423Y106D02*
X428Y106D01*
X462Y106D02*
X467Y106D01*
X492Y106D02*
X497Y106D01*
X514Y106D02*
X518Y106D01*
X542Y106D02*
X547Y106D01*
X553Y106D02*
X557Y106D01*
X570Y106D02*
X575Y106D01*
X592Y106D02*
X596Y106D01*
X614Y106D02*
X626Y106D01*
X687Y106D02*
X692Y106D01*
X726Y106D02*
X731Y106D01*
X1345Y106D02*
X1350Y106D01*
X1374Y106D02*
X1378Y106D01*
X1387Y106D02*
X1392Y106D01*
X1395Y106D02*
X1399Y106D01*
X1423Y106D02*
X1428Y106D01*
X1451Y106D02*
X1456Y106D01*
X1490Y106D02*
X1495Y106D01*
X1504Y106D02*
X1509Y106D01*
X1544Y106D02*
X1550Y106D01*
X1568Y106D02*
X1573Y106D01*
X1607Y106D02*
X1612Y106D01*
X1648Y106D02*
X1653Y106D01*
X1696Y106D02*
X1700Y106D01*
X1724Y106D02*
X1728Y106D01*
X1774Y106D02*
X1778Y106D01*
X1803Y106D02*
X1808Y106D01*
X1855Y106D02*
X1861Y106D01*
X220Y105D02*
X224Y105D01*
X241Y105D02*
X245Y105D01*
X264Y105D02*
X269Y105D01*
X303Y105D02*
X308Y105D01*
X337Y105D02*
X341Y105D01*
X358Y105D02*
X363Y105D01*
X385Y105D02*
X392Y105D01*
X422Y105D02*
X428Y105D01*
X461Y105D02*
X467Y105D01*
X492Y105D02*
X497Y105D01*
X514Y105D02*
X518Y105D01*
X542Y105D02*
X547Y105D01*
X553Y105D02*
X557Y105D01*
X570Y105D02*
X575Y105D01*
X592Y105D02*
X596Y105D01*
X616Y105D02*
X628Y105D01*
X658Y105D02*
X664Y105D01*
X687Y105D02*
X692Y105D01*
X726Y105D02*
X731Y105D01*
X1345Y105D02*
X1350Y105D01*
X1374Y105D02*
X1378Y105D01*
X1387Y105D02*
X1392Y105D01*
X1395Y105D02*
X1399Y105D01*
X1423Y105D02*
X1428Y105D01*
X1451Y105D02*
X1456Y105D01*
X1490Y105D02*
X1495Y105D01*
X1505Y105D02*
X1510Y105D01*
X1545Y105D02*
X1551Y105D01*
X1568Y105D02*
X1573Y105D01*
X1607Y105D02*
X1612Y105D01*
X1648Y105D02*
X1653Y105D01*
X1696Y105D02*
X1700Y105D01*
X1724Y105D02*
X1728Y105D01*
X1774Y105D02*
X1778Y105D01*
X1804Y105D02*
X1809Y105D01*
X1856Y105D02*
X1862Y105D01*
X220Y104D02*
X224Y104D01*
X241Y104D02*
X245Y104D01*
X264Y104D02*
X269Y104D01*
X303Y104D02*
X308Y104D01*
X337Y104D02*
X341Y104D01*
X358Y104D02*
X363Y104D01*
X384Y104D02*
X393Y104D01*
X422Y104D02*
X427Y104D01*
X461Y104D02*
X466Y104D01*
X492Y104D02*
X497Y104D01*
X514Y104D02*
X518Y104D01*
X542Y104D02*
X547Y104D01*
X553Y104D02*
X557Y104D01*
X570Y104D02*
X575Y104D01*
X592Y104D02*
X596Y104D01*
X618Y104D02*
X631Y104D01*
X657Y104D02*
X666Y104D01*
X687Y104D02*
X692Y104D01*
X726Y104D02*
X731Y104D01*
X1345Y104D02*
X1350Y104D01*
X1374Y104D02*
X1378Y104D01*
X1387Y104D02*
X1392Y104D01*
X1395Y104D02*
X1399Y104D01*
X1423Y104D02*
X1428Y104D01*
X1451Y104D02*
X1456Y104D01*
X1490Y104D02*
X1495Y104D01*
X1505Y104D02*
X1511Y104D01*
X1545Y104D02*
X1551Y104D01*
X1568Y104D02*
X1573Y104D01*
X1607Y104D02*
X1612Y104D01*
X1649Y104D02*
X1654Y104D01*
X1696Y104D02*
X1700Y104D01*
X1724Y104D02*
X1728Y104D01*
X1774Y104D02*
X1778Y104D01*
X1804Y104D02*
X1810Y104D01*
X1857Y104D02*
X1863Y104D01*
X220Y103D02*
X224Y103D01*
X241Y103D02*
X245Y103D01*
X264Y103D02*
X269Y103D01*
X303Y103D02*
X308Y103D01*
X337Y103D02*
X341Y103D01*
X358Y103D02*
X363Y103D01*
X384Y103D02*
X393Y103D01*
X421Y103D02*
X426Y103D01*
X460Y103D02*
X465Y103D01*
X492Y103D02*
X497Y103D01*
X514Y103D02*
X518Y103D01*
X542Y103D02*
X547Y103D01*
X553Y103D02*
X557Y103D01*
X570Y103D02*
X575Y103D01*
X592Y103D02*
X596Y103D01*
X620Y103D02*
X632Y103D01*
X656Y103D02*
X666Y103D01*
X687Y103D02*
X692Y103D01*
X726Y103D02*
X731Y103D01*
X1345Y103D02*
X1350Y103D01*
X1374Y103D02*
X1378Y103D01*
X1388Y103D02*
X1393Y103D01*
X1395Y103D02*
X1399Y103D01*
X1423Y103D02*
X1428Y103D01*
X1451Y103D02*
X1456Y103D01*
X1490Y103D02*
X1495Y103D01*
X1506Y103D02*
X1511Y103D01*
X1546Y103D02*
X1552Y103D01*
X1568Y103D02*
X1573Y103D01*
X1607Y103D02*
X1612Y103D01*
X1649Y103D02*
X1654Y103D01*
X1696Y103D02*
X1700Y103D01*
X1724Y103D02*
X1728Y103D01*
X1774Y103D02*
X1778Y103D01*
X1805Y103D02*
X1810Y103D01*
X1858Y103D02*
X1864Y103D01*
X220Y102D02*
X224Y102D01*
X241Y102D02*
X245Y102D01*
X264Y102D02*
X269Y102D01*
X303Y102D02*
X308Y102D01*
X337Y102D02*
X341Y102D01*
X358Y102D02*
X363Y102D01*
X384Y102D02*
X393Y102D01*
X420Y102D02*
X426Y102D01*
X459Y102D02*
X465Y102D01*
X492Y102D02*
X497Y102D01*
X514Y102D02*
X518Y102D01*
X542Y102D02*
X547Y102D01*
X553Y102D02*
X557Y102D01*
X570Y102D02*
X575Y102D01*
X592Y102D02*
X596Y102D01*
X623Y102D02*
X633Y102D01*
X656Y102D02*
X666Y102D01*
X687Y102D02*
X692Y102D01*
X726Y102D02*
X731Y102D01*
X1345Y102D02*
X1350Y102D01*
X1374Y102D02*
X1378Y102D01*
X1388Y102D02*
X1393Y102D01*
X1395Y102D02*
X1399Y102D01*
X1423Y102D02*
X1428Y102D01*
X1451Y102D02*
X1456Y102D01*
X1490Y102D02*
X1495Y102D01*
X1506Y102D02*
X1512Y102D01*
X1547Y102D02*
X1553Y102D01*
X1568Y102D02*
X1573Y102D01*
X1607Y102D02*
X1612Y102D01*
X1650Y102D02*
X1655Y102D01*
X1696Y102D02*
X1700Y102D01*
X1724Y102D02*
X1728Y102D01*
X1774Y102D02*
X1778Y102D01*
X1805Y102D02*
X1811Y102D01*
X1858Y102D02*
X1864Y102D01*
X220Y101D02*
X224Y101D01*
X241Y101D02*
X245Y101D01*
X264Y101D02*
X269Y101D01*
X303Y101D02*
X308Y101D01*
X337Y101D02*
X341Y101D01*
X358Y101D02*
X363Y101D01*
X384Y101D02*
X393Y101D01*
X420Y101D02*
X425Y101D01*
X459Y101D02*
X464Y101D01*
X492Y101D02*
X497Y101D01*
X514Y101D02*
X518Y101D01*
X542Y101D02*
X547Y101D01*
X553Y101D02*
X557Y101D01*
X570Y101D02*
X575Y101D01*
X592Y101D02*
X596Y101D01*
X625Y101D02*
X634Y101D01*
X656Y101D02*
X666Y101D01*
X687Y101D02*
X692Y101D01*
X726Y101D02*
X731Y101D01*
X1345Y101D02*
X1350Y101D01*
X1374Y101D02*
X1378Y101D01*
X1389Y101D02*
X1399Y101D01*
X1423Y101D02*
X1428Y101D01*
X1451Y101D02*
X1456Y101D01*
X1490Y101D02*
X1495Y101D01*
X1507Y101D02*
X1512Y101D01*
X1548Y101D02*
X1554Y101D01*
X1568Y101D02*
X1573Y101D01*
X1607Y101D02*
X1612Y101D01*
X1650Y101D02*
X1655Y101D01*
X1696Y101D02*
X1700Y101D01*
X1724Y101D02*
X1728Y101D01*
X1774Y101D02*
X1778Y101D01*
X1806Y101D02*
X1811Y101D01*
X1859Y101D02*
X1865Y101D01*
X220Y100D02*
X224Y100D01*
X241Y100D02*
X245Y100D01*
X264Y100D02*
X269Y100D01*
X303Y100D02*
X308Y100D01*
X337Y100D02*
X341Y100D01*
X358Y100D02*
X363Y100D01*
X384Y100D02*
X393Y100D01*
X419Y100D02*
X425Y100D01*
X458Y100D02*
X464Y100D01*
X492Y100D02*
X497Y100D01*
X514Y100D02*
X518Y100D01*
X542Y100D02*
X547Y100D01*
X553Y100D02*
X557Y100D01*
X570Y100D02*
X575Y100D01*
X592Y100D02*
X596Y100D01*
X627Y100D02*
X634Y100D01*
X656Y100D02*
X666Y100D01*
X687Y100D02*
X692Y100D01*
X726Y100D02*
X731Y100D01*
X1345Y100D02*
X1350Y100D01*
X1374Y100D02*
X1378Y100D01*
X1389Y100D02*
X1399Y100D01*
X1423Y100D02*
X1428Y100D01*
X1451Y100D02*
X1456Y100D01*
X1490Y100D02*
X1495Y100D01*
X1508Y100D02*
X1513Y100D01*
X1530Y100D02*
X1533Y100D01*
X1548Y100D02*
X1554Y100D01*
X1568Y100D02*
X1573Y100D01*
X1607Y100D02*
X1612Y100D01*
X1651Y100D02*
X1656Y100D01*
X1696Y100D02*
X1700Y100D01*
X1724Y100D02*
X1728Y100D01*
X1774Y100D02*
X1778Y100D01*
X1806Y100D02*
X1812Y100D01*
X1842Y100D02*
X1845Y100D01*
X1860Y100D02*
X1866Y100D01*
X220Y99D02*
X224Y99D01*
X241Y99D02*
X245Y99D01*
X264Y99D02*
X269Y99D01*
X303Y99D02*
X308Y99D01*
X337Y99D02*
X341Y99D01*
X358Y99D02*
X363Y99D01*
X384Y99D02*
X393Y99D01*
X419Y99D02*
X424Y99D01*
X458Y99D02*
X463Y99D01*
X492Y99D02*
X497Y99D01*
X514Y99D02*
X518Y99D01*
X542Y99D02*
X547Y99D01*
X553Y99D02*
X557Y99D01*
X570Y99D02*
X575Y99D01*
X592Y99D02*
X596Y99D01*
X629Y99D02*
X635Y99D01*
X656Y99D02*
X666Y99D01*
X687Y99D02*
X692Y99D01*
X726Y99D02*
X731Y99D01*
X1345Y99D02*
X1350Y99D01*
X1374Y99D02*
X1378Y99D01*
X1390Y99D02*
X1399Y99D01*
X1423Y99D02*
X1428Y99D01*
X1451Y99D02*
X1456Y99D01*
X1490Y99D02*
X1495Y99D01*
X1508Y99D02*
X1513Y99D01*
X1529Y99D02*
X1534Y99D01*
X1549Y99D02*
X1555Y99D01*
X1568Y99D02*
X1573Y99D01*
X1607Y99D02*
X1612Y99D01*
X1651Y99D02*
X1656Y99D01*
X1696Y99D02*
X1700Y99D01*
X1724Y99D02*
X1728Y99D01*
X1774Y99D02*
X1778Y99D01*
X1807Y99D02*
X1812Y99D01*
X1841Y99D02*
X1845Y99D01*
X1861Y99D02*
X1866Y99D01*
X220Y98D02*
X224Y98D01*
X241Y98D02*
X245Y98D01*
X264Y98D02*
X269Y98D01*
X282Y98D02*
X283Y98D01*
X303Y98D02*
X308Y98D01*
X321Y98D02*
X322Y98D01*
X337Y98D02*
X342Y98D01*
X358Y98D02*
X362Y98D01*
X384Y98D02*
X393Y98D01*
X418Y98D02*
X423Y98D01*
X457Y98D02*
X462Y98D01*
X492Y98D02*
X498Y98D01*
X514Y98D02*
X518Y98D01*
X542Y98D02*
X547Y98D01*
X553Y98D02*
X557Y98D01*
X570Y98D02*
X575Y98D01*
X592Y98D02*
X596Y98D01*
X630Y98D02*
X635Y98D01*
X656Y98D02*
X666Y98D01*
X688Y98D02*
X693Y98D01*
X727Y98D02*
X732Y98D01*
X1345Y98D02*
X1350Y98D01*
X1374Y98D02*
X1378Y98D01*
X1390Y98D02*
X1399Y98D01*
X1423Y98D02*
X1428Y98D01*
X1451Y98D02*
X1456Y98D01*
X1490Y98D02*
X1495Y98D01*
X1509Y98D02*
X1514Y98D01*
X1529Y98D02*
X1534Y98D01*
X1550Y98D02*
X1555Y98D01*
X1568Y98D02*
X1573Y98D01*
X1607Y98D02*
X1612Y98D01*
X1652Y98D02*
X1657Y98D01*
X1696Y98D02*
X1700Y98D01*
X1724Y98D02*
X1728Y98D01*
X1774Y98D02*
X1778Y98D01*
X1807Y98D02*
X1813Y98D01*
X1841Y98D02*
X1845Y98D01*
X1862Y98D02*
X1867Y98D01*
X220Y97D02*
X224Y97D01*
X241Y97D02*
X245Y97D01*
X264Y97D02*
X269Y97D01*
X281Y97D02*
X284Y97D01*
X303Y97D02*
X308Y97D01*
X320Y97D02*
X323Y97D01*
X337Y97D02*
X343Y97D01*
X357Y97D02*
X362Y97D01*
X384Y97D02*
X393Y97D01*
X418Y97D02*
X423Y97D01*
X456Y97D02*
X462Y97D01*
X492Y97D02*
X500Y97D01*
X514Y97D02*
X518Y97D01*
X542Y97D02*
X547Y97D01*
X553Y97D02*
X557Y97D01*
X570Y97D02*
X575Y97D01*
X592Y97D02*
X596Y97D01*
X630Y97D02*
X635Y97D01*
X656Y97D02*
X666Y97D01*
X688Y97D02*
X694Y97D01*
X727Y97D02*
X733Y97D01*
X1345Y97D02*
X1350Y97D01*
X1374Y97D02*
X1378Y97D01*
X1390Y97D02*
X1399Y97D01*
X1423Y97D02*
X1428Y97D01*
X1451Y97D02*
X1456Y97D01*
X1490Y97D02*
X1495Y97D01*
X1509Y97D02*
X1515Y97D01*
X1529Y97D02*
X1534Y97D01*
X1551Y97D02*
X1555Y97D01*
X1568Y97D02*
X1573Y97D01*
X1607Y97D02*
X1612Y97D01*
X1652Y97D02*
X1658Y97D01*
X1696Y97D02*
X1700Y97D01*
X1724Y97D02*
X1728Y97D01*
X1774Y97D02*
X1778Y97D01*
X1808Y97D02*
X1813Y97D01*
X1841Y97D02*
X1846Y97D01*
X1862Y97D02*
X1867Y97D01*
X220Y96D02*
X224Y96D01*
X241Y96D02*
X246Y96D01*
X264Y96D02*
X269Y96D01*
X280Y96D02*
X285Y96D01*
X303Y96D02*
X308Y96D01*
X319Y96D02*
X324Y96D01*
X337Y96D02*
X344Y96D01*
X356Y96D02*
X362Y96D01*
X385Y96D02*
X392Y96D01*
X417Y96D02*
X422Y96D01*
X456Y96D02*
X461Y96D01*
X492Y96D02*
X501Y96D01*
X513Y96D02*
X518Y96D01*
X542Y96D02*
X547Y96D01*
X553Y96D02*
X557Y96D01*
X570Y96D02*
X575Y96D01*
X592Y96D02*
X596Y96D01*
X611Y96D02*
X612Y96D01*
X630Y96D02*
X635Y96D01*
X657Y96D02*
X665Y96D01*
X689Y96D02*
X695Y96D01*
X728Y96D02*
X734Y96D01*
X1336Y96D02*
X1359Y96D01*
X1374Y96D02*
X1378Y96D01*
X1391Y96D02*
X1399Y96D01*
X1423Y96D02*
X1428Y96D01*
X1451Y96D02*
X1476Y96D01*
X1490Y96D02*
X1495Y96D01*
X1510Y96D02*
X1515Y96D01*
X1530Y96D02*
X1555Y96D01*
X1568Y96D02*
X1573Y96D01*
X1607Y96D02*
X1632Y96D01*
X1653Y96D02*
X1670Y96D01*
X1687Y96D02*
X1709Y96D01*
X1724Y96D02*
X1728Y96D01*
X1764Y96D02*
X1787Y96D01*
X1808Y96D02*
X1826Y96D01*
X1841Y96D02*
X1866Y96D01*
X220Y95D02*
X224Y95D01*
X241Y95D02*
X246Y95D01*
X264Y95D02*
X269Y95D01*
X280Y95D02*
X285Y95D01*
X303Y95D02*
X308Y95D01*
X318Y95D02*
X323Y95D01*
X337Y95D02*
X345Y95D01*
X354Y95D02*
X361Y95D01*
X416Y95D02*
X422Y95D01*
X455Y95D02*
X461Y95D01*
X492Y95D02*
X502Y95D01*
X512Y95D02*
X518Y95D01*
X542Y95D02*
X547Y95D01*
X553Y95D02*
X557Y95D01*
X570Y95D02*
X575Y95D01*
X592Y95D02*
X596Y95D01*
X610Y95D02*
X614Y95D01*
X630Y95D02*
X635Y95D01*
X689Y95D02*
X697Y95D01*
X728Y95D02*
X736Y95D01*
X1335Y95D02*
X1360Y95D01*
X1374Y95D02*
X1378Y95D01*
X1391Y95D02*
X1399Y95D01*
X1423Y95D02*
X1428Y95D01*
X1451Y95D02*
X1477Y95D01*
X1490Y95D02*
X1495Y95D01*
X1510Y95D02*
X1516Y95D01*
X1530Y95D02*
X1555Y95D01*
X1568Y95D02*
X1573Y95D01*
X1607Y95D02*
X1633Y95D01*
X1653Y95D02*
X1672Y95D01*
X1685Y95D02*
X1710Y95D01*
X1724Y95D02*
X1728Y95D01*
X1763Y95D02*
X1788Y95D01*
X1809Y95D02*
X1827Y95D01*
X1842Y95D02*
X1866Y95D01*
X220Y94D02*
X224Y94D01*
X241Y94D02*
X246Y94D01*
X265Y94D02*
X271Y94D01*
X278Y94D02*
X284Y94D01*
X304Y94D02*
X309Y94D01*
X317Y94D02*
X323Y94D01*
X337Y94D02*
X346Y94D01*
X353Y94D02*
X360Y94D01*
X416Y94D02*
X421Y94D01*
X455Y94D02*
X460Y94D01*
X492Y94D02*
X504Y94D01*
X510Y94D02*
X517Y94D01*
X542Y94D02*
X547Y94D01*
X553Y94D02*
X557Y94D01*
X570Y94D02*
X575Y94D01*
X591Y94D02*
X596Y94D01*
X609Y94D02*
X615Y94D01*
X629Y94D02*
X635Y94D01*
X690Y94D02*
X698Y94D01*
X729Y94D02*
X737Y94D01*
X1335Y94D02*
X1360Y94D01*
X1374Y94D02*
X1378Y94D01*
X1392Y94D02*
X1399Y94D01*
X1423Y94D02*
X1428Y94D01*
X1451Y94D02*
X1477Y94D01*
X1490Y94D02*
X1495Y94D01*
X1511Y94D02*
X1516Y94D01*
X1531Y94D02*
X1554Y94D01*
X1568Y94D02*
X1573Y94D01*
X1607Y94D02*
X1633Y94D01*
X1654Y94D02*
X1672Y94D01*
X1685Y94D02*
X1711Y94D01*
X1724Y94D02*
X1728Y94D01*
X1763Y94D02*
X1789Y94D01*
X1810Y94D02*
X1828Y94D01*
X1842Y94D02*
X1866Y94D01*
X220Y93D02*
X224Y93D01*
X241Y93D02*
X246Y93D01*
X265Y93D02*
X284Y93D01*
X304Y93D02*
X323Y93D01*
X337Y93D02*
X348Y93D01*
X352Y93D02*
X359Y93D01*
X415Y93D02*
X421Y93D01*
X454Y93D02*
X460Y93D01*
X492Y93D02*
X516Y93D01*
X532Y93D02*
X557Y93D01*
X571Y93D02*
X596Y93D01*
X609Y93D02*
X634Y93D01*
X692Y93D02*
X712Y93D01*
X731Y93D02*
X751Y93D01*
X1335Y93D02*
X1360Y93D01*
X1374Y93D02*
X1378Y93D01*
X1392Y93D02*
X1399Y93D01*
X1423Y93D02*
X1427Y93D01*
X1451Y93D02*
X1477Y93D01*
X1490Y93D02*
X1495Y93D01*
X1512Y93D02*
X1516Y93D01*
X1532Y93D02*
X1553Y93D01*
X1568Y93D02*
X1573Y93D01*
X1607Y93D02*
X1633Y93D01*
X1655Y93D02*
X1672Y93D01*
X1685Y93D02*
X1711Y93D01*
X1724Y93D02*
X1728Y93D01*
X1763Y93D02*
X1789Y93D01*
X1811Y93D02*
X1828Y93D01*
X1843Y93D02*
X1865Y93D01*
X220Y92D02*
X224Y92D01*
X241Y92D02*
X246Y92D01*
X266Y92D02*
X283Y92D01*
X305Y92D02*
X322Y92D01*
X337Y92D02*
X358Y92D01*
X415Y92D02*
X420Y92D01*
X454Y92D02*
X459Y92D01*
X492Y92D02*
X515Y92D01*
X532Y92D02*
X557Y92D01*
X571Y92D02*
X596Y92D01*
X610Y92D02*
X634Y92D01*
X693Y92D02*
X713Y92D01*
X732Y92D02*
X752Y92D01*
X1335Y92D02*
X1360Y92D01*
X1374Y92D02*
X1377Y92D01*
X1393Y92D02*
X1399Y92D01*
X1424Y92D02*
X1427Y92D01*
X1451Y92D02*
X1477Y92D01*
X1491Y92D02*
X1494Y92D01*
X1512Y92D02*
X1516Y92D01*
X1533Y92D02*
X1552Y92D01*
X1569Y92D02*
X1572Y92D01*
X1607Y92D02*
X1632Y92D01*
X1656Y92D02*
X1671Y92D01*
X1686Y92D02*
X1710Y92D01*
X1725Y92D02*
X1728Y92D01*
X1764Y92D02*
X1788Y92D01*
X1812Y92D02*
X1827Y92D01*
X1844Y92D02*
X1864Y92D01*
X220Y91D02*
X224Y91D01*
X241Y91D02*
X246Y91D01*
X266Y91D02*
X282Y91D01*
X305Y91D02*
X321Y91D01*
X337Y91D02*
X357Y91D01*
X415Y91D02*
X419Y91D01*
X454Y91D02*
X458Y91D01*
X493Y91D02*
X497Y91D01*
X499Y91D02*
X514Y91D01*
X531Y91D02*
X557Y91D01*
X571Y91D02*
X595Y91D01*
X611Y91D02*
X633Y91D01*
X694Y91D02*
X713Y91D01*
X733Y91D02*
X752Y91D01*
X1337Y91D02*
X1358Y91D01*
X1376Y91D02*
X1376Y91D01*
X1393Y91D02*
X1399Y91D01*
X1452Y91D02*
X1475Y91D01*
X1514Y91D02*
X1514Y91D01*
X1536Y91D02*
X1550Y91D01*
X1608Y91D02*
X1631Y91D01*
X1660Y91D02*
X1670Y91D01*
X1687Y91D02*
X1708Y91D01*
X1726Y91D02*
X1726Y91D01*
X1765Y91D02*
X1786Y91D01*
X1816Y91D02*
X1825Y91D01*
X1847Y91D02*
X1861Y91D01*
X220Y90D02*
X224Y90D01*
X242Y90D02*
X245Y90D01*
X268Y90D02*
X281Y90D01*
X306Y90D02*
X320Y90D01*
X337Y90D02*
X341Y90D01*
X343Y90D02*
X356Y90D01*
X415Y90D02*
X419Y90D01*
X454Y90D02*
X458Y90D01*
X493Y90D02*
X497Y90D01*
X500Y90D02*
X513Y90D01*
X532Y90D02*
X557Y90D01*
X572Y90D02*
X594Y90D01*
X612Y90D02*
X632Y90D01*
X695Y90D02*
X713Y90D01*
X734Y90D02*
X752Y90D01*
X221Y89D02*
X223Y89D01*
X242Y89D02*
X245Y89D01*
X269Y89D02*
X279Y89D01*
X308Y89D02*
X318Y89D01*
X337Y89D02*
X341Y89D01*
X345Y89D02*
X355Y89D01*
X416Y89D02*
X418Y89D01*
X455Y89D02*
X457Y89D01*
X494Y89D02*
X496Y89D01*
X502Y89D02*
X511Y89D01*
X533Y89D02*
X556Y89D01*
X574Y89D02*
X593Y89D01*
X614Y89D02*
X630Y89D01*
X697Y89D02*
X712Y89D01*
X736Y89D02*
X751Y89D01*
X337Y88D02*
X341Y88D01*
X346Y88D02*
X353Y88D01*
X337Y87D02*
X341Y87D01*
X337Y86D02*
X341Y86D01*
X337Y85D02*
X341Y85D01*
X337Y84D02*
X341Y84D01*
X337Y83D02*
X341Y83D01*
X337Y82D02*
X341Y82D01*
X337Y81D02*
X341Y81D01*
X337Y80D02*
X341Y80D01*
X337Y79D02*
X341Y79D01*
X337Y78D02*
X340Y78D01*
D02*
G04 End of Silk1*
M02*