G04 MADE WITH FRITZING*
G04 WWW.FRITZING.ORG*
G04 DOUBLE SIDED*
G04 HOLES PLATED*
G04 CONTOUR ON CENTER OF CONTOUR VECTOR*
%ASAXBY*%
%FSLAX23Y23*%
%MOIN*%
%OFA0B0*%
%SFA1.0B1.0*%
%ADD10C,0.075000*%
%ADD11C,0.078000*%
%ADD12R,0.075000X0.075000*%
%ADD13C,0.024000*%
%LNCOPPER1*%
G90*
G70*
G54D10*
X1838Y352D03*
X1838Y752D03*
X1738Y352D03*
X1738Y752D03*
X1638Y352D03*
X1638Y752D03*
X1538Y352D03*
X1538Y752D03*
X1438Y352D03*
X1438Y752D03*
X1338Y352D03*
X1338Y752D03*
X1238Y352D03*
X1238Y752D03*
X1138Y352D03*
X1138Y752D03*
X938Y352D03*
X938Y752D03*
X838Y352D03*
X838Y752D03*
X738Y352D03*
X738Y752D03*
X638Y352D03*
X638Y752D03*
X538Y352D03*
X538Y752D03*
X438Y352D03*
X438Y752D03*
X338Y352D03*
X338Y752D03*
X238Y352D03*
X238Y752D03*
X1838Y1202D03*
X1838Y902D03*
X1738Y1202D03*
X1738Y902D03*
X1638Y1202D03*
X1638Y902D03*
X1538Y1202D03*
X1538Y902D03*
X1438Y1202D03*
X1438Y902D03*
X1338Y1202D03*
X1338Y902D03*
X1238Y1202D03*
X1238Y902D03*
X1138Y1202D03*
X1138Y902D03*
X1038Y1202D03*
X1038Y902D03*
X938Y1202D03*
X938Y902D03*
X838Y1202D03*
X838Y902D03*
X738Y1202D03*
X738Y902D03*
X638Y1202D03*
X638Y902D03*
X538Y1202D03*
X538Y902D03*
X438Y1202D03*
X438Y902D03*
X338Y1202D03*
X338Y902D03*
X238Y1202D03*
X238Y902D03*
X138Y1202D03*
X138Y902D03*
G54D11*
X1738Y1302D03*
X1838Y1302D03*
X1538Y1302D03*
X1638Y1302D03*
X1338Y1302D03*
X1438Y1302D03*
X1138Y1302D03*
X1238Y1302D03*
X838Y1302D03*
X938Y1302D03*
X638Y1302D03*
X738Y1302D03*
X438Y1302D03*
X538Y1302D03*
X238Y1302D03*
X338Y1302D03*
X1738Y252D03*
X1838Y252D03*
X1538Y252D03*
X1638Y252D03*
X1338Y252D03*
X1438Y252D03*
X1138Y252D03*
X1238Y252D03*
X838Y252D03*
X938Y252D03*
X638Y252D03*
X738Y252D03*
X438Y252D03*
X538Y252D03*
X238Y252D03*
X338Y252D03*
X1988Y1127D03*
X1988Y1027D03*
G54D12*
X1838Y1202D03*
X938Y1202D03*
G54D13*
X1838Y873D02*
X1838Y780D01*
D02*
X1738Y873D02*
X1738Y780D01*
D02*
X1638Y873D02*
X1638Y780D01*
D02*
X1538Y873D02*
X1538Y780D01*
D02*
X1438Y873D02*
X1438Y780D01*
D02*
X1338Y873D02*
X1338Y780D01*
D02*
X1238Y873D02*
X1238Y780D01*
D02*
X1138Y873D02*
X1138Y780D01*
D02*
X1838Y1230D02*
X1838Y1271D01*
D02*
X1738Y1230D02*
X1738Y1271D01*
D02*
X1638Y1230D02*
X1638Y1271D01*
D02*
X1538Y1230D02*
X1538Y1271D01*
D02*
X1438Y1230D02*
X1438Y1271D01*
D02*
X1338Y1230D02*
X1338Y1271D01*
D02*
X1238Y1230D02*
X1238Y1271D01*
D02*
X1138Y1230D02*
X1138Y1271D01*
D02*
X1037Y1053D02*
X1038Y1173D01*
D02*
X140Y1053D02*
X1037Y1053D01*
D02*
X140Y1202D02*
X140Y1053D01*
D02*
X167Y1202D02*
X140Y1202D01*
D02*
X938Y873D02*
X938Y780D01*
D02*
X838Y873D02*
X838Y780D01*
D02*
X738Y873D02*
X738Y780D01*
D02*
X638Y873D02*
X638Y780D01*
D02*
X538Y873D02*
X538Y780D01*
D02*
X438Y873D02*
X438Y780D01*
D02*
X338Y873D02*
X338Y780D01*
D02*
X238Y873D02*
X238Y780D01*
D02*
X938Y1271D02*
X938Y1230D01*
D02*
X838Y1271D02*
X838Y1230D01*
D02*
X738Y1271D02*
X738Y1230D01*
D02*
X638Y1271D02*
X638Y1230D01*
D02*
X538Y1271D02*
X538Y1230D01*
D02*
X438Y1271D02*
X438Y1230D01*
D02*
X338Y1271D02*
X338Y1230D01*
D02*
X238Y1271D02*
X238Y1230D01*
D02*
X1838Y282D02*
X1838Y323D01*
D02*
X1738Y282D02*
X1738Y323D01*
D02*
X1638Y282D02*
X1638Y323D01*
D02*
X1538Y282D02*
X1538Y323D01*
D02*
X1438Y282D02*
X1438Y323D01*
D02*
X1338Y282D02*
X1338Y323D01*
D02*
X1238Y282D02*
X1238Y323D01*
D02*
X1138Y282D02*
X1138Y323D01*
D02*
X938Y282D02*
X938Y323D01*
D02*
X838Y282D02*
X838Y323D01*
D02*
X738Y282D02*
X738Y323D01*
D02*
X638Y282D02*
X638Y323D01*
D02*
X538Y282D02*
X538Y323D01*
D02*
X438Y282D02*
X438Y323D01*
D02*
X338Y282D02*
X338Y323D01*
D02*
X238Y282D02*
X238Y323D01*
D02*
X1038Y1173D02*
X1038Y1127D01*
D02*
X1038Y1127D02*
X1958Y1127D01*
G04 End of Copper1*
M02*