G04 MADE WITH FRITZING*
G04 WWW.FRITZING.ORG*
G04 DOUBLE SIDED*
G04 HOLES PLATED*
G04 CONTOUR ON CENTER OF CONTOUR VECTOR*
%ASAXBY*%
%FSLAX23Y23*%
%MOIN*%
%OFA0B0*%
%SFA1.0B1.0*%
%ADD10C,0.085000*%
%ADD11C,0.088000*%
%ADD12R,0.085000X0.085000*%
%LNMASK1*%
G90*
G70*
G54D10*
X1838Y352D03*
X1838Y752D03*
X1738Y352D03*
X1738Y752D03*
X1638Y352D03*
X1638Y752D03*
X1538Y352D03*
X1538Y752D03*
X1438Y352D03*
X1438Y752D03*
X1338Y352D03*
X1338Y752D03*
X1238Y352D03*
X1238Y752D03*
X1138Y352D03*
X1138Y752D03*
X938Y352D03*
X938Y752D03*
X838Y352D03*
X838Y752D03*
X738Y352D03*
X738Y752D03*
X638Y352D03*
X638Y752D03*
X538Y352D03*
X538Y752D03*
X438Y352D03*
X438Y752D03*
X338Y352D03*
X338Y752D03*
X238Y352D03*
X238Y752D03*
X1838Y1202D03*
X1838Y902D03*
X1738Y1202D03*
X1738Y902D03*
X1638Y1202D03*
X1638Y902D03*
X1538Y1202D03*
X1538Y902D03*
X1438Y1202D03*
X1438Y902D03*
X1338Y1202D03*
X1338Y902D03*
X1238Y1202D03*
X1238Y902D03*
X1138Y1202D03*
X1138Y902D03*
X1038Y1202D03*
X1038Y902D03*
X938Y1202D03*
X938Y902D03*
X838Y1202D03*
X838Y902D03*
X738Y1202D03*
X738Y902D03*
X638Y1202D03*
X638Y902D03*
X538Y1202D03*
X538Y902D03*
X438Y1202D03*
X438Y902D03*
X338Y1202D03*
X338Y902D03*
X238Y1202D03*
X238Y902D03*
X138Y1202D03*
X138Y902D03*
G54D11*
X1738Y1302D03*
X1838Y1302D03*
X1538Y1302D03*
X1638Y1302D03*
X1338Y1302D03*
X1438Y1302D03*
X1138Y1302D03*
X1238Y1302D03*
X838Y1302D03*
X938Y1302D03*
X638Y1302D03*
X738Y1302D03*
X438Y1302D03*
X538Y1302D03*
X238Y1302D03*
X338Y1302D03*
X1738Y252D03*
X1838Y252D03*
X1538Y252D03*
X1638Y252D03*
X1338Y252D03*
X1438Y252D03*
X1138Y252D03*
X1238Y252D03*
X838Y252D03*
X938Y252D03*
X638Y252D03*
X738Y252D03*
X438Y252D03*
X538Y252D03*
X238Y252D03*
X338Y252D03*
X1988Y1127D03*
X1988Y1027D03*
G54D12*
X1838Y1202D03*
X938Y1202D03*
G04 End of Mask1*
M02*