; NON-PLATED HOLES START AT T1
; THROUGH (PLATED) HOLES START AT T100
M48
INCH
T100C0.038000
T101C0.035000
%
T100
X012380Y013015
X014380Y013015
X016380Y013015
X018380Y013015
X017380Y013015
X019880Y010265
X003380Y002515
X005380Y002515
X007380Y002515
X002380Y002515
X004380Y002515
X006380Y002515
X008380Y002515
X009380Y002515
X011380Y002515
X013380Y002515
X015380Y002515
X012380Y002515
X014380Y002515
X016380Y002515
X018380Y002515
X019880Y011265
X017380Y002515
X003380Y013015
X005380Y013015
X007380Y013015
X002380Y013015
X004380Y013015
X006380Y013015
X008380Y013015
X009380Y013015
X011380Y013015
X013380Y013015
X015380Y013015
T101
X002380Y012015
X016380Y003515
X011380Y012015
X008380Y007515
X017380Y007515
X005380Y009015
X014380Y009015
X005380Y012015
X014380Y012015
X002380Y003515
X008380Y009015
X011380Y003515
X017380Y009015
X003380Y007515
X008380Y012015
X012380Y007515
X017380Y012015
X005380Y003515
X014380Y003515
X006380Y007515
X015380Y007515
X003380Y009015
X012380Y009015
X008380Y003515
X003380Y012015
X017380Y003515
X012380Y012015
X009380Y007515
X018380Y007515
X006380Y009015
X015380Y009015
X006380Y012015
X015380Y012015
X003380Y003515
X009380Y009015
X012380Y003515
X018380Y009015
X004380Y007515
X009380Y012015
X013380Y007515
X001380Y009015
X018380Y012015
X010380Y009015
X006380Y003515
X001380Y012015
X015380Y003515
X010380Y012015
X007380Y007515
X016380Y007515
X004380Y009015
X013380Y009015
X009380Y003515
X004380Y012015
X018380Y003515
X013380Y012015
X007380Y009015
X016380Y009015
X002380Y007515
X007380Y012015
X011380Y007515
X016380Y012015
X004380Y003515
X013380Y003515
X005380Y007515
X014380Y007515
X002380Y009015
X011380Y009015
X007380Y003515
T00
M30
